<svg width="750" height="750" viewBox="0 0 750 750" fill="none" xmlns="http://www.w3.org/2000/svg">
<g clip-path="url(#clip0_2524_8)">
<rect width="750" height="750" fill="white" fill-opacity="0.25"/>
<path d="M750 0H0V750H750V0Z" fill="#33ADDE"/>
<path fill-rule="evenodd" clip-rule="evenodd" d="M262.228 623.377C322.796 602.618 381.997 660.651 486.088 677.5C590.179 694.348 664.989 559.385 623.595 489.602C582.201 419.819 590.179 328.781 617.496 242.251C644.813 155.721 609.885 104.213 572.767 83.1257C535.649 62.0389 499.224 55.4301 441.128 59.3968C383.032 63.3635 322.498 80.6166 265.867 109.2C209.236 137.783 145.571 201.125 139.012 241.742C132.452 282.359 158.66 286.331 163.349 350.575C168.038 414.82 103.463 500.719 129.721 558.985C155.979 617.251 201.659 644.135 262.228 623.377Z" fill="#FFB61D"/>
<path fill-rule="evenodd" clip-rule="evenodd" d="M242.258 621.742L241.929 624.38C241.929 624.38 246.684 624.917 248.719 624.618C250.755 624.32 254.482 620.207 254.482 620.207C254.482 620.207 250.593 620.663 248.719 620.896" fill="#E7EAEE"/>
<path fill-rule="evenodd" clip-rule="evenodd" d="M257.393 707.978L264.88 715.12L386.191 271.652L378.782 262.031L257.393 707.978Z" fill="white"/>
<path fill-rule="evenodd" clip-rule="evenodd" d="M199 712.788C199 712.788 207.866 715.12 215.686 688.277C223.505 661.433 327.209 279.413 327.209 279.413L323.782 271.031L199 712.788Z" fill="white"/>
<path fill-rule="evenodd" clip-rule="evenodd" d="M404.758 45.726C405.495 43.8164 409.447 46.1339 411.453 45.726C411.377 48.7455 347.52 214.223 341.615 226.151C340.563 225.359 335.798 223.046 334.746 222.254C336.997 221.636 383.095 101.829 404.758 45.726Z" fill="white"/>
<path fill-rule="evenodd" clip-rule="evenodd" d="M467.382 42.0138C456.636 72.3273 407.504 201.633 402.246 212.255C401.681 211.83 398.532 214.868 396.272 215.077C394.326 215.257 393.233 212.622 392.746 212.255C394.961 211.646 439.613 95.6777 461.687 38.5012C462.05 37.5602 468.703 38.2878 467.382 42.0138Z" fill="white"/>
<path fill-rule="evenodd" clip-rule="evenodd" d="M270.024 548.117L281.243 553.63C281.243 553.63 310.789 511.381 310.789 490.262C310.789 481.845 286.46 476.203 272.565 466.628C264.651 461.175 261.367 451.352 256.954 447.571C253.5 444.613 245.763 443.066 234.935 443.79C232.34 443.963 226.65 447.571 226.65 447.571C226.65 447.571 202.998 468.433 215.802 485.459C219.636 490.559 235.638 516.725 239.16 534.034C243.807 556.878 241.071 620.496 241.071 620.496C241.071 620.496 246.01 620.448 249.058 619.76C252.106 619.073 258.446 616.578 258.446 616.578C258.446 616.578 257.731 594.958 258.446 585.338C260.3 560.366 263.123 540.404 260.741 524.919C255.791 492.743 237.169 478.267 237.169 478.267L291.5 504.197L270.024 548.117Z" fill="white"/>
<path fill-rule="evenodd" clip-rule="evenodd" d="M280.246 559.235C280.332 560.973 279.76 562.735 278.67 564.092C278.238 562.585 278.121 560.989 278.327 559.434C274.367 558.918 270.502 557.676 266.983 555.789C265.66 559.097 264.607 562.514 263.84 565.994C263.494 567.56 263.281 569.415 264.392 570.572C265.359 571.579 266.928 571.623 268.324 571.598C272.691 571.523 277.121 571.438 281.311 570.204C285.501 568.97 289.495 566.422 291.5 562.542C289.501 560.537 286.548 559.53 283.741 559.895C284.472 561.22 284.288 562.99 283.302 564.137C282.389 562.809 282.088 561.077 282.498 559.519C281.805 559.184 281.001 559.083 280.246 559.235Z" fill="white"/>
<path fill-rule="evenodd" clip-rule="evenodd" d="M247.855 625.587C245.66 626.074 243.042 626.611 241.424 625.05C241.068 627.969 240.981 630.921 241.165 633.856C241.589 634.155 242.148 634.255 242.649 634.12C242.925 634.758 243.023 635.472 242.929 636.16C244.572 638.133 247.704 637.502 250.117 636.628C253.953 635.239 257.79 633.635 260.929 631.031C262.412 629.8 263.817 628.082 263.576 626.17C263.336 624.257 260.46 622.994 259.415 624.614C260.335 625.526 260.764 626.907 260.523 628.181C258.64 626.824 256.758 625.468 254.876 624.111C255.595 625.962 256.314 627.814 257.033 629.665C256.584 630.38 255.398 630.026 254.934 629.321C254.469 628.616 254.394 627.717 253.977 626.983C252.865 625.028 250.05 625.1 247.855 625.587Z" fill="white"/>
<path fill-rule="evenodd" clip-rule="evenodd" d="M267.737 373.315C272.27 370.485 277.783 374.847 281.32 378.852C285.662 383.77 290.005 388.688 294.348 393.605C296.444 380.352 304.567 368.952 312.456 358.097C314.721 354.98 317.054 351.797 320.252 349.647C323.449 347.497 329.605 349.048 331.196 348.26C330.978 345.934 328.977 343.901 326.655 343.646C326.961 340.943 328.242 338.362 330.208 336.482C330.222 334.867 327.677 335.121 326.307 335.978C312.395 344.69 299.944 355.729 289.63 368.499C287.117 371.611 283.259 375.196 279.732 373.309C276.085 371.358 277.143 365.987 278.178 361.983C279.597 356.494 279.956 350.734 279.23 345.111C278.458 339.123 276.472 333.062 277.816 327.175C279.159 321.289 285.89 316.075 291.119 319.095C295.141 321.418 300.726 319.251 303.055 315.231C305.383 311.212 304.909 306.032 302.907 301.84C300.904 297.649 297.567 294.262 294.177 291.085C291.862 288.914 289.349 286.725 286.256 286.011C281.714 284.962 276.609 287.813 275.119 292.23C273.629 296.648 275.965 302.008 280.215 303.925C277.549 304.727 274.551 304.347 272.17 302.905C275.765 304.546 277.308 309.118 276.506 312.988C275.705 316.858 273.069 320.092 270.185 322.793C267.114 325.669 263.662 328.137 259.947 330.114C240.821 340.291 231.571 362.552 227.125 383.756C222.679 404.961 221.409 427.262 211.82 446.69C213.692 448.576 216.802 447.024 219.183 445.845C230.421 440.281 243.831 445.597 256.343 444.767C259.505 444.558 262.937 443.769 264.852 441.245C265.983 439.755 266.417 437.866 266.824 436.04C267.796 431.667 268.769 427.294 269.742 422.921C269.977 421.866 270.212 420.776 270.011 419.714C269.76 418.396 268.875 417.303 268.02 416.269C263.239 410.485 258.456 404.591 255.227 397.818C251.998 391.044 250.421 383.21 252.36 375.961C254.427 387.067 258.977 397.703 265.58 406.869C269.444 412.234 274.373 417.326 280.776 418.973C288.065 420.847 295.67 417.903 302.428 414.589C318.666 406.628 333.683 396.184 346.796 383.732C345.583 384.117 344.369 384.502 343.155 384.887C344.13 382.985 345.457 381.265 347.049 379.839C345.346 380.7 343.643 381.561 341.94 382.422C343.318 380.433 344.697 378.445 346.076 376.456C343.226 377.525 340.646 379.307 338.639 381.595C339.202 379.414 339.078 377.06 338.288 374.951C337.05 381.249 330.527 384.819 324.709 387.53C318.746 390.307 312.784 393.085 306.822 395.863C302.276 397.981 296.011 399.735 292.969 395.748C286.099 386.746 277.481 379.084 267.737 373.315Z" fill="white"/>
<path fill-rule="evenodd" clip-rule="evenodd" d="M290.556 311C291.932 311 292.444 309.881 291.715 308.5C291 307.119 289.603 306 288.578 306C287.554 306 287.005 307.119 287.368 308.5C287.746 309.881 289.179 311 290.556 311Z" fill="#FFB61D"/>
<path fill-rule="evenodd" clip-rule="evenodd" d="M301.181 303C302.239 303 302.639 301.881 302.075 300.5C301.511 299.119 300.197 298 299.139 298C298.082 298 297.682 299.119 298.246 300.5C298.81 301.881 300.124 303 301.181 303Z" fill="#FFB61D"/>
<path fill-rule="evenodd" clip-rule="evenodd" d="M408.817 301.452L407.246 419.575L542.402 428.264L551.634 423.635L553.22 178.209C553.255 172.727 550.088 167.728 545.115 165.42L542.402 164.16L443.217 172.703L408.817 301.452Z" fill="white"/>
<path fill-rule="evenodd" clip-rule="evenodd" d="M267.686 567.758C267.051 567.494 266.361 567.36 265.672 567.367C264.857 567.089 265.336 565.762 266.131 565.432C266.927 565.102 267.923 565.14 268.505 564.506C268.994 563.973 268.994 563.17 269.238 562.49C269.481 561.81 270.268 561.629 270.819 562.096C270.93 563.987 273.288 562.658 275.002 563.694C275.958 564.272 274.365 565.045 274.478 565.977C274.621 567.16 277.325 569.827 276.046 569.36C274.65 568.851 272.695 568.065 271.23 568.304C269.917 568.518 269.081 569.684 267.999 570.459C267.651 569.61 267.542 568.664 267.686 567.758Z" fill="#FFB61D"/>
<path fill-rule="evenodd" clip-rule="evenodd" d="M248.775 633.855C249.381 634.221 249.833 634.836 250.003 635.524C249.32 635.703 248.087 634.263 247.143 634.535C246.186 634.81 245.517 636.796 244.802 636.766C244.054 636.734 245.48 635.123 245.121 634.162C244.798 633.298 242.65 633.102 242.654 632.641C242.657 632.291 244.194 632.33 244.802 631.773C245.189 631.418 244.718 630.414 244.802 630.238C245.121 629.563 246.328 630.238 247.143 631.178C248.019 630.947 248.896 630.716 249.772 630.485C250.15 631.67 247.992 632.25 248.391 633.365L248.775 633.855Z" fill="#FFB61D"/>
<path fill-rule="evenodd" clip-rule="evenodd" d="M342.682 218.527C341.841 220.705 340.71 223.157 338.459 223.776L341.615 226.152C347.52 214.223 352.641 201.908 356.935 189.31C371.363 189.822 385.814 189.667 400.227 188.845L392.699 210.751C392.191 212.229 392.636 214.739 394.097 214.182C417.04 155.564 439.702 96.836 462.08 38C458.262 38.1757 456.797 42.2839 455.343 46.365C453.875 50.4833 452.416 54.5739 448.56 54.5682L409.474 54.5099C410.7 51.7496 411.377 48.7463 411.453 45.7267C409.447 46.1347 408.41 48.3099 407.672 50.2195L342.682 218.527ZM430.544 110.117C427.129 119.737 423.619 129.323 420.016 138.875C419.442 140.396 418.819 141.983 417.584 143.041C415.731 144.629 413.038 144.609 410.598 144.54C398.556 144.202 386.49 144.715 374.52 146.074C374.926 148.52 378.179 149.028 380.657 148.945L412.184 147.893C413.074 147.863 414.055 147.864 414.734 148.441C415.878 149.416 415.413 151.25 414.853 152.646L403.344 181.344C402.947 182.334 402.515 183.371 401.672 184.025C400.664 184.807 399.291 184.873 398.015 184.906L358.593 185.921C358.807 184.475 359.54 183.112 360.628 182.137C374.729 183.097 388.944 182.38 402.877 180.005C389.056 176.788 374.499 176.776 360.672 179.971L406.508 61.8515C406.891 60.8658 407.47 59.7232 408.523 59.6255C422.613 58.3172 436.774 57.769 450.924 57.9841C450.203 62.7344 443.952 63.8689 439.147 63.8492L411.835 63.7372C409.887 63.7292 407.183 64.5685 407.577 66.4762C407.886 67.9698 409.863 68.2655 411.387 68.2265L446.68 67.3238C444.391 75.2472 441.485 82.992 437.995 90.4647C437.52 91.4839 437.011 92.5279 436.164 93.2683C434.696 94.5522 432.567 94.6498 430.617 94.6821L400.236 95.1856C398.899 95.2077 397.464 95.2613 396.39 96.0579C395.316 96.8544 394.935 98.6913 396.009 99.489C396.604 99.931 397.411 99.9132 398.151 99.8763L434.955 98.0423C435.439 101.345 432.895 104.49 429.834 105.821C426.773 107.153 423.313 107.093 419.975 107.009L397.367 106.445C394.258 106.368 389.871 107.758 390.649 110.769C403.95 110.969 417.257 110.752 430.544 110.117ZM408.35 41.6249C385.119 101.015 361.854 160.392 338.556 219.756C337.953 221.293 336.104 223.096 335.05 221.824C334.509 221.171 334.794 220.195 335.105 219.405L403.781 44.6196C404.568 42.6177 406.729 40.211 408.35 41.6249ZM468.493 47.1932L407.128 206.371C406.053 209.161 404.482 212.367 401.525 212.806L467.531 41.7406C469.55 42.2954 469.247 45.2394 468.493 47.1932ZM378.906 140.811C378.534 140.008 379.049 139.019 379.806 138.562C380.564 138.105 381.487 138.045 382.37 137.999C393.715 137.41 405.083 137.261 416.439 137.553C417.463 137.579 417.745 139.169 417.034 139.907C416.324 140.644 415.191 140.725 414.168 140.759L381.723 141.845C380.66 141.881 379.353 141.776 378.906 140.811ZM300.466 348.881C303.156 348.772 304.512 345.658 305.243 343.067L323.307 279.095C323.993 276.667 324.685 274.136 324.237 271.653C321.57 274.035 320.473 277.669 319.496 281.109C313.085 303.681 306.742 326.271 300.466 348.881ZM327.57 375.625C327.857 376.478 328.369 377.253 329.04 377.851C325.088 377.845 321.244 378.833 317.396 379.823C313.934 380.713 310.469 381.604 306.918 381.773C305.296 381.85 303.008 380.808 303.72 379.348C304.033 378.706 304.809 378.466 305.503 378.298C312.722 376.556 320.144 375.657 327.57 375.625ZM266.729 332.409C268.383 337.52 271.88 342.013 276.428 344.872C276.871 342.598 274.943 340.806 273.164 339.152V339.151C272.865 338.874 272.57 338.6 272.292 338.328C269.67 335.771 268.05 332.212 267.845 328.556C266.754 329.463 266.292 331.058 266.729 332.409ZM281.446 298.764C283.52 298.764 286.995 301.521 285.303 302.84C283.611 304.158 279.711 298.764 281.446 298.764ZM305.205 388.956L316.705 385.21C317.548 384.935 318.56 384.434 318.529 383.548C312.837 383.945 307.183 384.898 301.676 386.391C300.542 386.699 300.741 388.582 301.782 389.128C302.822 389.674 304.087 389.32 305.205 388.956ZM288.835 293.149C289.73 292.276 294.751 295.504 293.002 297.37C292.104 298.326 287.847 294.113 288.835 293.149ZM279.406 297.315C279.57 296.978 279.736 296.638 280.002 296.334C280.336 295.952 280.861 295.498 281.389 295.042C282.426 294.145 283.475 293.238 283.102 292.858C280.878 293.437 278.923 294.98 277.842 297.007C276.933 298.764 278.347 298.892 278.637 298.453C279.01 298.13 279.206 297.725 279.406 297.315ZM294.602 298.764C294.873 298.907 295.164 299.049 295.461 299.194C297.084 299.985 298.901 300.872 298.75 302.537C298.572 304.507 296.232 305.925 295.457 304.106C295.607 303.783 295.925 303.669 296.255 303.551C296.755 303.372 297.281 303.184 297.281 302.242C297.281 301.593 296.669 301.124 296.03 300.634C295.351 300.114 294.642 299.57 294.602 298.764ZM288.937 289.878C286.816 290.096 285.025 292.211 285.229 294.334C285.535 294.576 285.989 293.902 286.496 293.15C286.857 292.613 287.246 292.037 287.626 291.725C288.031 291.393 288.755 291.059 289.424 290.751C290.372 290.314 291.209 289.927 290.876 289.669C290.543 289.703 290.225 289.738 289.906 289.773C289.588 289.808 289.269 289.843 288.937 289.878ZM332.445 418.322C333.114 419.473 331.367 420.481 330.051 420.682C317.964 422.529 305.837 424.113 293.681 425.433C293.344 423.965 294.318 422.447 295.609 421.67C296.9 420.893 298.445 420.691 299.94 420.504L307.523 419.561C315.168 418.609 322.835 417.657 330.539 417.634C331.248 417.632 332.088 417.709 332.445 418.322ZM281.32 378.854C277.783 374.848 272.27 370.486 267.737 373.316C277.481 379.085 286.099 386.747 292.969 395.749C296.011 399.736 302.276 397.982 306.822 395.864L324.709 387.531C330.527 384.82 337.05 381.25 338.288 374.952C339.078 377.062 339.202 379.415 338.639 381.597C340.646 379.308 343.226 377.526 346.076 376.457L341.94 382.423L347.049 379.841C345.457 381.266 344.13 382.986 343.155 384.888L346.796 383.733C333.683 396.185 318.666 406.63 302.428 414.59C295.67 417.904 288.065 420.849 280.776 418.974C274.373 417.327 269.444 412.235 265.58 406.871C258.977 397.705 254.427 387.068 252.36 375.962C250.421 383.211 251.998 391.045 255.227 397.819C258.456 404.592 263.239 410.486 268.02 416.27C268.875 417.304 269.76 418.397 270.011 419.715C270.212 420.777 269.977 421.867 269.742 422.922L266.824 436.041C266.418 437.867 265.983 439.756 264.852 441.246C262.937 443.77 259.505 444.559 256.344 444.768C251.81 445.069 247.159 444.563 242.536 444.06C234.399 443.174 226.35 442.298 219.183 445.846L219.152 445.862C216.775 447.039 213.684 448.569 211.82 446.691C218.76 432.631 221.342 417.066 223.925 401.501C224.911 395.558 225.897 389.616 227.125 383.758C231.571 362.553 240.821 340.292 259.947 330.115C263.662 328.139 267.114 325.67 270.185 322.794C273.069 320.093 275.705 316.859 276.506 312.989C277.245 309.421 275.991 305.256 272.973 303.342C275.203 304.418 277.841 304.641 280.215 303.926C275.965 302.009 273.629 296.649 275.119 292.231C276.609 287.814 281.714 284.963 286.256 286.012C289.349 286.726 291.862 288.916 294.178 291.086C297.567 294.263 300.904 297.65 302.907 301.842C304.909 306.033 305.383 311.213 303.055 315.232C300.726 319.252 295.141 321.419 291.119 319.096C285.89 316.076 279.159 321.29 277.816 327.176C276.831 331.493 277.635 335.903 278.439 340.309C278.732 341.912 279.024 343.515 279.231 345.112C279.956 350.735 279.597 356.495 278.178 361.984C277.143 365.989 276.085 371.359 279.732 373.31C283.259 375.197 287.117 371.613 289.63 368.501C299.944 355.731 312.395 344.691 326.307 335.98C327.677 335.122 330.222 334.868 330.208 336.484C328.242 338.363 326.961 340.944 326.655 343.647C328.977 343.902 330.978 345.936 331.196 348.261C330.593 348.56 329.336 348.523 327.832 348.478C325.366 348.405 322.238 348.313 320.252 349.648C317.054 351.799 314.721 354.982 312.456 358.099C304.567 368.953 296.444 380.353 294.348 393.606L281.32 378.854ZM272.17 302.906C272.43 303.064 272.699 303.209 272.973 303.342C272.718 303.18 272.45 303.034 272.17 302.906ZM313.88 359.766C318.289 353.579 325.813 346.63 332.314 350.56C333.523 348.688 331.475 346.453 329.919 344.756C328.983 343.735 328.225 342.908 328.464 342.472C328.554 342.307 328.65 342.133 328.749 341.954C331.339 337.249 336.334 328.176 321.297 336.471C311.045 342.127 295.306 357.963 287.188 366.132C283.977 369.363 281.958 371.394 281.942 371.122C281.622 365.826 281.478 359.936 281.333 354.047C281.188 348.157 281.044 342.267 280.724 336.971C280.502 333.292 280.316 329.421 281.942 326.113C283.568 322.805 287.678 320.411 291.017 321.974C299.514 325.952 308.717 314.863 306.868 305.665C305.018 296.468 296.922 290.054 289.378 284.477C293.219 279.821 294.087 272.913 291.517 267.452C288.947 261.991 283.07 258.258 277.035 258.251C277.957 262.143 277.165 266.41 274.907 269.711C272.699 272.939 269.367 275.055 266.025 277.177C264.474 278.162 262.92 279.149 261.475 280.249C256.919 283.719 253.188 289.968 255.954 294.983C257.548 297.873 260.649 299.226 263.779 300.592C266.568 301.809 269.381 303.036 271.171 305.37C274.9 310.235 272.272 317.621 267.71 321.714C264.902 324.233 261.544 325.972 258.179 327.715C256.076 328.804 253.969 329.894 251.992 331.178C237.84 340.367 232.067 357.925 227.645 374.209C220.729 399.674 214.712 425.383 209.608 451.273L216.703 451.24C209.988 459.414 209.681 471.315 212.711 481.452C214.93 488.877 218.679 495.691 222.427 502.503V502.504C223.795 504.991 225.163 507.477 226.457 509.993C235.52 527.621 241.064 547.492 239.36 567.24C238.424 578.079 235.352 588.604 232.295 599.045L199 712.789C205.717 692.296 212.74 669.641 219.763 646.986C226.786 624.332 233.81 601.677 240.526 581.185C240.807 580.329 240.667 584.108 240.526 587.887C240.386 591.666 240.246 595.445 240.526 594.589C238.852 600.902 236.868 607.403 234.977 613.597V613.598C233.539 618.31 232.155 622.845 231.003 626.984C228.853 634.707 226.836 642.019 224.81 649.367L224.809 649.37L224.808 649.374L224.807 649.379C219.714 667.843 214.56 686.532 207.078 712.513C217.979 688.735 223.821 663.008 229.592 637.495C230.832 637.49 232.322 637.486 233.812 637.482C235.303 637.478 236.793 637.474 238.033 637.47C236.559 635.696 231.003 634.514 231.003 634.514L231.609 631.431C231.609 631.431 239.037 632.697 238.657 631.066C237.9 630.52 232.295 629.666 232.295 629.666C232.295 629.666 238.377 607.566 240.526 600.398L239.037 635.301C238.979 636.653 238.985 638.177 239.945 639.131C240.932 640.111 242.513 640.076 243.894 639.914C248.02 639.43 252.081 638.397 255.937 636.849C259.112 635.575 262.419 633.538 264.051 630.703L275.119 631.032C275.119 631.032 274.55 633.466 274.277 634.634C274.236 634.81 271.199 634.891 268.176 634.971C265.178 635.05 262.193 635.129 262.153 635.301C262.101 635.523 265.052 635.839 267.987 636.154C270.889 636.464 273.775 636.773 273.725 636.988C272.322 642.965 271.121 648.539 270.123 653.171L270.122 653.179L270.121 653.181C269.174 657.578 268.41 661.126 267.829 663.364C267.263 665.541 266.607 667.866 264.876 669.304C263.812 670.188 257.117 670.983 253.039 671.467H253.036L253.032 671.468H253.03L253.019 671.469L253.007 671.47C251.642 671.632 250.574 671.759 250.117 671.842C244.284 672.905 239.271 672.978 234.557 673.047C230.721 673.103 227.083 673.156 223.362 673.737C221.601 674.013 220.671 675.65 221.233 676.201C228.631 675.974 235.722 675.472 242.813 674.969C249.903 674.466 256.994 673.963 264.392 673.737C264.232 674.452 264.153 675.046 264.088 675.533C263.93 676.727 263.855 677.289 262.876 677.441C256.385 678.451 249.547 678.972 242.708 679.494C235.869 680.016 229.03 680.537 222.539 681.547C220.4 681.88 217.884 684.75 219.943 685.42L262.379 680.63C259.263 689.457 256.1 698.707 257.393 707.979C279.391 630.738 300.686 553.297 321.274 475.669C311.425 474.465 301.317 475.427 291.871 478.466C299.68 480.685 308.937 484.503 309.915 492.562C310.423 496.747 308.384 500.773 306.406 504.496L280.607 553.054L270.638 547.629L289.71 512.369C291.244 509.534 292.768 505.984 291.023 503.274C290.089 501.824 288.433 501.037 286.863 500.322L234.358 476.421C241.861 480.769 247.382 488.399 249.165 496.886C250.117 501.415 252.28 505.521 254.449 509.639C255.985 512.554 257.524 515.476 258.638 518.558C262.542 529.356 260.985 541.153 259.47 552.627C259.311 553.829 259.153 555.028 259.001 556.221C256.472 576.151 255.983 596.339 257.543 616.369L242.095 619.908C245.079 585.025 247.742 548.227 232.725 516.6C230.86 512.671 228.737 508.866 226.615 505.063C223.682 499.805 220.751 494.55 218.502 488.972C214.626 479.361 212.946 468.207 217.197 458.756C221.449 449.304 233.085 442.812 242.615 446.884C246.971 448.745 251.954 449.1 256.529 447.874C267.37 471.033 299.133 481.466 321.595 469.245C324.009 467.932 324.944 465 325.666 462.349L344.594 392.84C339.618 396.304 338.438 402.817 337.33 408.927C337.191 409.697 337.053 410.461 336.908 411.211C335.615 417.915 331.717 425.674 324.89 425.748C312.488 425.884 300.1 427.307 287.991 429.986L289.939 422.059C307.838 416.045 324.595 406.656 339.069 394.53C345.279 389.328 351.558 380.941 347.546 373.903L340.269 376.727C341.152 375.537 340.322 373.527 338.856 373.308C328.032 385.001 313.139 392.853 297.376 395.179C298.281 382.01 306.219 370.516 313.88 359.766ZM264.585 629.592C264.436 629.975 264.257 630.345 264.051 630.703L262.876 630.668C262.876 630.668 263.234 630.057 264.585 629.592ZM261.03 565.252C261.778 569.63 266.228 573.598 270.94 574.209C277.142 575.014 283.123 571.972 288.637 569.023C289.771 568.416 290.939 567.781 291.729 566.766C293.954 563.907 291.922 559.39 288.682 557.769C285.441 556.147 281.6 556.562 278.005 557.016C283.815 556.025 286.309 549.553 288.489 543.896L288.626 543.54L288.723 543.288L288.795 543.103C288.865 542.923 288.935 542.743 289.004 542.565C291.325 536.641 297.703 530.298 303.076 533.705C298.924 546.714 295.318 559.898 292.271 573.21L267.589 576.131C264.632 576.481 260.652 578.496 261.932 581.185L291.211 577.136L280.946 614.533C280.187 617.296 277.035 628.182 277.035 628.182C277.035 628.182 267.775 628.875 265.589 629.322C265.206 629.4 264.873 629.493 264.585 629.592C264.862 628.88 265.034 628.125 265.079 627.325C265.339 622.678 257.776 619.336 255.999 623.638C253.711 621.531 256.226 616.859 259.245 617.609C258.552 600.145 259.152 582.63 261.03 565.252ZM261.03 565.252C261.177 563.891 261.332 562.531 261.494 561.172C260.92 562.513 260.799 563.902 261.03 565.252ZM261.494 561.172C262.45 553.194 263.675 545.248 265.168 537.352L272.216 537.079L261.536 561.076L261.515 561.125L261.494 561.172ZM296.201 470.601C290.051 471.43 282.939 471.963 278.51 467.616C278.073 467.187 277.66 466.69 277.542 466.089C277.434 465.538 277.588 464.973 277.741 464.432L286.706 432.75C292.344 433.538 298.07 432.787 303.713 432.036L331.711 428.313C328.775 440.201 325.628 452.037 322.274 463.813C321.935 465.004 321.523 466.294 320.489 466.976C319.833 467.409 319.025 467.525 318.245 467.63L296.201 470.601ZM366.601 297.094C366.177 304.514 365.688 312.181 362.306 318.8C358.924 325.418 357.942 331.425 357.942 331.425L355.296 340.313C347.71 339.765 340.015 340.759 332.817 343.217C339.806 346.268 348.043 346.328 355.074 343.379C351.527 352.756 349.468 362.694 349 372.709C360.88 337.122 371.184 301.01 379.872 264.512C384.614 265.396 384.571 272.179 383.308 276.835L266.519 707.224C264.876 712.789 261.614 729.871 274.124 685.42C288.465 634.463 311.001 552.959 333.155 472.836C353.335 399.85 373.199 328.009 386.263 281.45C387.278 277.831 388.302 273.057 387.618 269.361C386.934 265.666 383.986 262.098 380.228 262.032C375.642 268.729 372.394 276.339 370.731 284.284L326.889 288.317C328.859 284.961 328.671 280.46 326.426 277.281L308.805 343.572C316.425 327.574 321.913 310.563 325.078 293.129L370.254 287.011C370.395 293.744 360.944 295.117 354.209 295.085C344.351 295.039 334.489 297.047 325.433 300.942C339.245 301.479 353.128 300.181 366.601 297.094ZM265.291 524.671C265.275 526.209 265.765 527.749 266.668 528.995C270.283 528.162 274.018 527.849 277.722 528.067C275.696 530.54 274.004 533.286 272.706 536.208L272.113 533.787L265.471 534.102L264.153 528.306C263.433 525.137 262.707 521.913 262.931 518.671C263.116 516.001 263.938 513.422 264.753 510.874L269.585 495.781L285.218 502.086C286.5 502.603 287.828 503.151 288.753 504.179C289.677 505.206 290.06 506.862 289.243 507.976C285.079 513.663 281.519 519.792 278.643 526.227C278.194 525.275 278.182 524.128 278.61 523.168C274.142 523.348 269.687 523.85 265.291 524.671ZM272.375 422.196C272.51 421.192 273.726 420.639 274.72 420.836C275.713 421.034 276.514 421.745 277.262 422.429L278.596 421.198C279.36 421.29 279.398 422.383 279.214 423.131C276.16 435.591 272.654 447.94 268.704 460.145L260.741 447.219C263.832 447.64 266.822 445.521 268.389 442.824C269.956 440.128 270.4 436.945 270.814 433.853L272.375 422.196ZM278.67 564.091C279.76 562.734 280.332 560.971 280.246 559.233C281.001 559.081 281.805 559.182 282.498 559.517C282.088 561.076 282.389 562.807 283.302 564.136C284.288 562.989 284.472 561.219 283.741 559.894C286.548 559.528 289.501 560.536 291.5 562.54C289.495 566.421 285.501 568.969 281.311 570.203C277.121 571.437 272.691 571.521 268.324 571.597C266.928 571.621 265.359 571.577 264.392 570.571C263.281 569.414 263.494 567.559 263.84 565.992C264.607 562.513 265.66 559.096 266.983 555.788C270.503 557.675 274.367 558.917 278.327 559.433C278.121 560.987 278.238 562.583 278.67 564.091ZM241.424 625.051C243.042 626.612 245.66 626.075 247.855 625.588C250.05 625.101 252.865 625.03 253.977 626.984C254.171 627.327 254.292 627.705 254.412 628.083C254.549 628.515 254.686 628.946 254.933 629.322C255.398 630.027 256.584 630.381 257.033 629.666L254.876 624.112L260.523 628.182C260.764 626.909 260.335 625.527 259.415 624.615C260.46 622.995 263.336 624.258 263.576 626.171C263.817 628.083 262.412 629.801 260.929 631.032C257.79 633.637 253.953 635.24 250.117 636.629C247.704 637.503 244.572 638.134 242.929 636.161C243.023 635.473 242.925 634.759 242.649 634.121C242.148 634.256 241.589 634.156 241.165 633.857C240.981 630.922 241.068 627.97 241.424 625.051ZM274.798 465.318C272.841 464.778 271.563 462.489 272.129 460.54L283.233 422.314C284.352 422.194 285.493 422.289 286.577 422.591L274.798 465.318ZM303.268 517.616C303.626 516.818 303.985 516.02 304.349 515.228C306.618 510.299 309.18 505.505 312.018 500.881C312.905 503.659 311.539 506.547 310.274 509.221L310.272 509.225L310.265 509.24V509.241H310.264C310.175 509.43 310.087 509.617 309.999 509.804C307.855 514.38 306.424 519.291 305.775 524.303C305.282 528.102 300.536 530.643 297.101 528.947C299.719 525.521 301.497 521.561 303.268 517.616ZM260.247 492.208C260.606 492.78 260.529 493.512 260.424 494.179C259.709 498.709 258.253 503.12 256.131 507.186L249.422 488.646C252.632 489.15 255.785 490.017 258.801 491.225C259.352 491.445 259.932 491.705 260.247 492.208ZM303.273 480.459C307.901 478.223 313.32 477.671 318.304 478.928C316.581 483.302 315.447 487.907 314.943 492.581C313.847 493.008 313.148 491.435 312.894 490.287C311.853 485.569 307.967 481.6 303.273 480.459ZM266.211 495.139C266.425 495.877 266.211 496.664 265.998 497.403L260.991 514.723C259.384 512.391 259.899 509.257 260.521 506.494C261.485 502.216 262.552 497.962 263.721 493.735C264.74 493.462 265.916 494.126 266.211 495.139ZM275.038 556.684C273.189 556.603 271.195 556.469 269.771 555.287C268.347 554.104 268.055 551.465 269.679 550.577L276.553 554.161L275.038 556.684ZM248.253 624.236C246.278 624.609 244.25 624.18 242.286 623.752L242.541 621.809C245.905 621.834 249.272 621.391 252.515 620.497C252.155 622.474 250.228 623.862 248.253 624.236ZM301.105 306.05C301.436 305.91 301.816 306.074 301.951 306.417C302.087 306.759 301.928 307.151 301.597 307.291C299.972 307.979 298.972 308.889 298.131 310.15C297.767 310.695 297.263 311.84 296.765 312.975C296.079 314.534 295.404 316.072 295.114 315.997C294.613 315.869 295.869 310.902 296.837 309.451C297.827 307.967 299.255 306.833 301.105 306.05ZM450.463 175.564L529.794 167.814C531.662 167.632 534.156 166.637 533.704 164.815C506.268 166.884 478.858 169.306 451.484 172.08C449.673 172.263 447.251 174.035 448.617 175.239C449.1 175.664 449.822 175.626 450.463 175.564ZM462.639 242.384C462.66 242.966 462.699 243.596 463.078 244.039C463.597 244.647 464.519 244.65 465.318 244.605L487.335 243.35C488.126 243.305 488.936 243.255 489.659 242.932C492.072 241.853 492.273 238.568 492.144 235.928C491.634 225.49 491.712 215.023 492.379 204.594C492.469 203.182 493.155 201.286 494.542 201.567L494.206 242.66C494.199 243.559 494.154 244.554 493.526 245.196C492.93 245.807 491.997 245.903 491.146 245.962C486.313 246.3 481.478 246.625 476.644 246.95L461.961 247.937C461.413 247.973 460.814 247.997 460.369 247.673C459.767 247.235 459.712 246.374 459.713 245.629L459.769 209.267C459.771 207.941 459.875 206.405 460.954 205.634C462.574 207.577 462.57 210.356 462.504 212.885C462.247 222.716 462.292 232.555 462.639 242.384ZM549.41 355.524C549.473 353.889 549.481 352.25 549.486 350.625L549.921 211.28C549.932 207.555 549.826 203.489 547.432 200.636C546.528 253.484 546.392 306.345 547.025 359.197C546.806 360.544 546.779 361.964 546.786 363.306C546.823 369.753 546.714 379.387 546.604 389.021C546.495 398.654 546.386 408.287 546.422 414.734C546.438 417.452 544.183 419.764 541.631 420.7C539.078 421.636 536.275 421.493 533.56 421.339L403.63 413.938L404.364 367.527C419.81 365.969 435.445 366.301 450.811 368.516C449.939 377.83 449.385 387.174 449.148 396.527C447.733 397.317 439.749 397.283 430.849 397.244C422.252 397.207 412.8 397.166 407.585 397.862C428.241 401.946 449.33 401.375 470.455 400.802C486.207 400.375 501.978 399.947 517.605 401.449C518.289 401.648 518.766 400.592 518.378 399.994C517.99 399.397 517.212 399.216 516.512 399.085L501.866 396.342L502.523 373.699C502.558 372.523 502.615 371.272 503.287 370.307C504.611 368.407 507.098 368.753 509.625 369.104C512.053 369.441 514.517 369.784 516.021 368.143C514.337 378.479 515.195 389.22 518.498 399.158C521.153 329.958 522.137 260.693 521.448 191.445C521.432 189.896 521.342 188.167 520.222 187.096C519.065 185.99 517.266 186.018 515.669 186.115L464.957 189.188C454.629 189.814 443.92 190.545 434.836 195.497L518.646 188.476C518.503 193.318 512.112 194.835 507.271 195.008C481.689 195.923 456.193 199.223 431.223 204.854C436.456 206.836 442.407 206.856 447.654 204.909C449.36 204.277 450.34 206.835 450.352 208.655L450.561 242.66C450.568 243.816 450.191 245.378 449.035 245.342C437.755 244.992 426.431 246.04 415.407 248.457C415.724 250.235 418.122 250.532 419.923 250.398L450.251 248.148C451.817 248.031 453.851 247.449 453.859 245.878L454.052 207.086C454.058 205.936 454.098 204.686 454.828 203.797C455.672 202.768 457.144 202.57 458.469 202.445L517.18 196.934L519.748 234.851C519.947 237.785 517.561 240.396 514.811 241.441C512.062 242.486 509.021 242.318 506.085 242.135C505.048 242.071 503.889 241.948 503.22 241.153C502.64 240.463 502.613 239.48 502.615 238.579L502.683 202.459C502.685 201.557 501.273 201.294 500.629 201.926C499.986 202.558 499.935 203.561 499.924 204.463L499.529 238.938C499.522 239.521 499.5 240.075 499.479 240.598C499.355 243.675 499.276 245.641 502.705 245.878C506.717 246.156 515.476 244.84 519.122 243.145L517.571 311.628L504.892 311.987C503.463 312.028 501.89 312.126 500.863 313.119C499.765 314.181 499.676 315.881 499.658 317.408L499.255 352.035C499.249 352.561 499.227 353.062 499.205 353.536C499.089 356.125 499.01 357.879 501.866 358.215C505.245 358.613 512.68 357.628 515.85 356.395C516.692 359.561 516.796 362.921 516.154 366.133L501.954 365.079C500.828 364.996 499.272 365.278 499.263 366.407L499.053 392.962C499.036 395.143 498.147 398.132 495.99 397.802C494.176 397.525 493.774 395.119 493.818 393.284L494.431 367.703C494.464 366.322 492.63 365.834 491.249 365.791L462.862 364.901C462.108 364.877 461.303 364.866 460.664 365.266C459.583 365.942 459.448 367.435 459.43 368.71L459.148 388.62C459.091 392.629 457.68 398.014 453.675 397.823L453.515 368.398C453.51 367.523 453.472 366.558 452.876 365.917C452.365 365.368 451.574 365.202 450.835 365.07C435.968 362.417 420.684 362.111 405.722 364.168C403.7 361.176 402.98 357.336 403.782 353.815C407.359 355.514 411.48 355.487 415.439 355.427L449.919 354.903C450.829 354.89 451.813 354.851 452.527 354.285C453.509 353.505 453.59 352.069 453.587 350.815L453.517 319.243C453.512 317.3 453.417 315.132 452.024 313.779C450.594 312.391 448.357 312.398 446.366 312.493L406.93 314.376C405.742 308.035 405.188 301.576 405.277 295.126C405.512 294.261 404.122 293.732 403.424 294.295C402.727 294.858 402.626 295.865 402.58 296.759C400.596 335.14 400.049 373.595 400.938 412.016C401.027 415.868 406.04 417.206 409.887 417.423L533.185 424.358C536.719 424.557 540.371 424.739 543.688 423.505C547.005 422.272 549.921 419.228 549.845 415.69C549.672 407.615 549.644 396.353 549.617 385.091C549.591 374.301 549.565 363.512 549.41 355.524ZM488.625 358.21L461.303 357.408C460.874 357.395 460.417 357.373 460.067 357.125C459.499 356.723 459.445 355.915 459.444 355.219L459.423 315.533C459.423 314.527 459.476 313.393 460.225 312.72C460.885 312.127 461.863 312.103 462.751 312.111L492.439 312.383C492.912 312.388 493.428 312.408 493.786 312.717C494.22 313.093 494.254 313.744 494.254 314.319L494.28 355.181C494.281 357.581 491.025 358.281 488.625 358.21ZM462.93 315.495C461.918 315.981 461.779 317.34 461.779 318.463L461.806 353.175C461.807 353.593 461.835 354.071 462.161 354.331C462.372 354.498 462.657 354.53 462.924 354.554C470.804 355.272 478.736 355.408 486.635 354.961C489.058 354.824 492.251 353.791 492.039 351.374C491.091 340.566 491.003 329.683 491.776 318.861C491.949 316.432 488.659 315.55 486.224 315.525L464.276 315.302C463.818 315.297 463.342 315.297 462.93 315.495ZM463.496 254.838C462.281 254.658 460.757 254.586 460.133 255.643C459.876 256.077 459.85 256.604 459.831 257.107C459.251 272.54 459.21 287.993 459.711 303.428C461.877 302.689 462.159 299.791 462.087 297.503C461.676 284.469 462.46 271.43 463.244 258.412C472.291 259.345 481.467 259.008 490.422 257.416C491.69 257.191 492.186 258.999 492.139 260.286C491.696 272.461 491.671 284.652 492.065 296.829C492.234 297.494 491.296 297.831 490.611 297.858L464.494 298.888C463.492 298.927 463.262 300.507 463.991 301.195C464.72 301.883 465.836 301.899 466.838 301.874L492.575 301.225C493.067 301.213 493.619 301.174 493.946 300.806C494.237 300.48 494.252 300 494.252 299.563L494.263 256.477C494.263 255.993 494.258 255.488 494.033 255.06C493.429 253.912 491.779 254.021 490.505 254.265C481.619 255.969 472.446 256.164 463.496 254.838ZM550.81 182.811C550.61 188.844 550.368 195.066 547.823 200.539L546.633 176.417C546.452 172.757 544.462 167.728 540.979 168.868L540.504 406.847C540.494 411.572 540.473 416.379 539.077 420.893C537.571 420.039 537.396 417.977 537.402 416.245L538.275 168.66C538.277 168.034 538.283 167.388 538.535 166.815C539.145 165.424 540.954 164.992 542.457 165.215C545.99 165.741 548.71 168.823 549.871 172.201C551.032 175.578 550.927 179.241 550.81 182.811ZM450.142 261.89L450.285 296.353C450.288 296.993 450.251 297.724 449.756 298.131C449.414 298.414 448.941 298.459 448.498 298.493L408.148 301.58C406.89 301.676 406.683 303.678 407.641 304.498C408.599 305.318 410.005 305.26 411.261 305.146C414.45 304.855 417.643 304.487 420.837 304.118C430.945 302.952 441.065 301.784 451.117 303.075C453.045 303.323 453.806 300.665 453.817 298.721L454.044 256.7C454.046 256.214 454.018 255.658 453.641 255.351C453.315 255.086 452.849 255.11 452.431 255.147L417.969 258.208C417.067 258.288 416.114 258.387 415.388 258.928C414.663 259.469 414.311 260.617 414.911 261.295L446.954 259.577C448.068 259.517 449.439 259.597 449.937 260.595C450.134 260.99 450.14 261.449 450.142 261.89ZM499.561 296.597L499.757 256.488C499.76 255.855 499.781 255.167 500.181 254.677C500.55 254.225 501.151 254.05 501.715 253.899L513.573 250.727C514.656 250.437 515.874 250.163 516.843 250.726C517.812 251.289 517.948 253.076 516.862 253.354L505.289 256.313C504.494 256.517 503.639 256.758 503.138 257.407C502.643 258.047 502.617 258.92 502.613 259.729L502.411 296.057C502.406 297 502.812 298.309 503.735 298.117C508.26 297.173 513.016 297.359 517.453 298.653C517.1 300.551 514.596 300.961 512.666 300.933L501.868 300.778C500.091 300.752 499.552 298.373 499.561 296.597ZM449.418 317.035C449.96 317.485 450.003 318.287 450.003 318.991L450.012 349.283C450.013 350.553 449.765 352.165 448.535 352.481C435.168 351.548 421.75 351.35 408.361 351.887C407.113 351.937 406.032 350.898 405.613 349.722C405.194 348.545 405.286 347.257 405.376 346.011C405.972 337.75 406.217 329.464 406.112 321.182C406.099 320.187 406.191 318.992 407.065 318.517C407.371 318.35 407.727 318.307 408.074 318.267C421.29 316.753 434.617 316.21 447.913 316.646C448.441 316.663 449.012 316.697 449.418 317.035ZM491.8 375.081C491.179 380.859 491.068 386.693 491.469 392.49C491.492 392.819 491.464 393.265 491.434 393.752C491.364 394.896 491.281 396.26 491.8 396.832C490.883 397.825 471.504 397.679 463.962 396.968C463.27 396.903 462.49 396.782 462.093 396.212C461.811 395.808 461.8 395.28 461.799 394.788L461.779 371.303C461.779 370.452 461.814 369.507 462.41 368.899C463.044 368.252 464.065 368.237 464.971 368.265L486.033 368.923C487.98 368.984 490.233 369.206 491.309 370.83C492.114 372.045 491.956 373.632 491.8 375.081ZM502.337 317.096C502.337 316.513 503.083 316.283 503.663 316.225L517.827 314.793L517.084 351.695C517.067 352.538 516.963 353.535 516.228 353.95C515.887 354.142 515.478 354.159 515.087 354.171L504.892 354.492C504.106 354.516 503.2 354.489 502.705 353.878C502.34 353.427 502.323 352.796 502.324 352.215L502.337 317.096Z" fill="#00160A"/>
</g>
<defs>
<clipPath id="clip0_2524_8">
<rect width="750" height="750" fill="white"/>
</clipPath>
</defs>
</svg>
