<svg width="1000" height="1000" viewBox="0 0 1000 1000" fill="none" xmlns="http://www.w3.org/2000/svg">
<g clip-path="url(#clip0_2524_657)">
<mask id="mask0_2524_657" style="mask-type:luminance" maskUnits="userSpaceOnUse" x="0" y="0" width="1000" height="1000">
<path d="M1000 0H0V1000H1000V0Z" fill="white"/>
</mask>
<g mask="url(#mask0_2524_657)">
<path d="M955.16 102.109L950.1 115.959" stroke="#CCDDE2" stroke-width="3.69" stroke-miterlimit="10"/>
<path d="M940.26 142.859L907.05 233.649" stroke="#CCDDE2" stroke-width="3.69" stroke-miterlimit="10" stroke-dasharray="26.26 28.64 28.64 26.26"/>
<path d="M902.54 245.98L677.49 861.35" stroke="#CCDDE2" stroke-width="3.69" stroke-miterlimit="10" stroke-dasharray="28.64 28.64 26.26 28.64 28.64 26.26"/>
<path d="M672.98 873.68L667.92 887.53" stroke="#CCDDE2" stroke-width="3.69" stroke-miterlimit="10"/>
<path d="M945.62 15.8008L940.54 29.6408" stroke="#CCDDE2" stroke-width="3.69" stroke-miterlimit="10"/>
<path d="M930.35 57.4414L895.97 151.271" stroke="#CCDDE2" stroke-width="3.69" stroke-miterlimit="10" stroke-dasharray="27.14 29.61 29.61 27.14"/>
<path d="M891.3 164.012L658.24 799.952" stroke="#CCDDE2" stroke-width="3.69" stroke-miterlimit="10" stroke-dasharray="29.61 29.61 27.14 29.61 29.61 27.14"/>
<path d="M653.57 812.699L648.5 826.539" stroke="#CCDDE2" stroke-width="3.69" stroke-miterlimit="10"/>
<path d="M920.08 -27.0195L883.27 73.0605" stroke="#CCDDE2" stroke-width="3.69" stroke-miterlimit="10" stroke-dasharray="28.96 31.6 31.6 28.96"/>
<path d="M878.27 86.6484L692.42 591.988" stroke="#CCDDE2" stroke-width="3.69" stroke-miterlimit="10" stroke-dasharray="31.6 31.6 28.96 31.6 31.6 28.96"/>
<path d="M687.42 605.578L682.33 619.418" stroke="#CCDDE2" stroke-width="3.69" stroke-miterlimit="10"/>
<path d="M872.15 -7.12109L579.07 799.799" stroke="#CCDDE2" stroke-width="3.69" stroke-miterlimit="10" stroke-dasharray="29.9 29.9 27.41 29.9 29.9 27.41"/>
<path d="M574.39 812.68L569.36 826.54" stroke="#CCDDE2" stroke-width="3.69" stroke-miterlimit="10"/>
<path d="M1027.02 368.309L810.67 970.389" stroke="#CCDDE2" stroke-width="3.69" stroke-miterlimit="10" stroke-dasharray="27.97 27.97 25.64 27.97 27.97 25.64"/>
<path d="M806.33 982.449L801.35 996.329" stroke="#CCDDE2" stroke-width="3.69" stroke-miterlimit="10"/>
<path d="M1013.86 289.121L780.8 925.061" stroke="#CCDDE2" stroke-width="3.69" stroke-miterlimit="10" stroke-dasharray="29.61 29.61 27.14 29.61 29.61 27.14"/>
<path d="M776.13 937.801L771.06 951.651" stroke="#CCDDE2" stroke-width="3.69" stroke-miterlimit="10"/>
<path d="M1000.83 211.75L814.98 717.1" stroke="#CCDDE2" stroke-width="3.69" stroke-miterlimit="10" stroke-dasharray="31.6 31.6 28.96 31.6 31.6 28.96"/>
<path d="M809.98 730.691L804.89 744.531" stroke="#CCDDE2" stroke-width="3.69" stroke-miterlimit="10"/>
<path d="M1033.85 10.2383L999.39 105.108" stroke="#CCDDE2" stroke-width="3.69" stroke-miterlimit="10" stroke-dasharray="27.41 29.9 29.9 27.41"/>
<path d="M994.71 117.988L701.64 924.908" stroke="#CCDDE2" stroke-width="3.69" stroke-miterlimit="10" stroke-dasharray="29.9 29.9 27.41 29.9 29.9 27.41"/>
<path d="M696.96 937.789L691.92 951.649" stroke="#CCDDE2" stroke-width="3.69" stroke-miterlimit="10"/>
<path d="M872.56 -106.879L513.36 884.301" stroke="#CCDDE2" stroke-width="3.69" stroke-miterlimit="10" stroke-dasharray="30.52 30.52 27.98 30.52 30.52 27.98"/>
<path d="M508.59 897.449L503.57 911.319" stroke="#CCDDE2" stroke-width="3.69" stroke-miterlimit="10"/>
<path d="M866.3 -202.988L530.73 718.302" stroke="#CCDDE2" stroke-width="3.69" stroke-miterlimit="10" stroke-dasharray="28.39 28.39 26.02 28.39 28.39 26.02"/>
<path d="M526.27 730.52L521.23 744.38" stroke="#CCDDE2" stroke-width="3.69" stroke-miterlimit="10"/>
<path d="M765.98 -51.4883L732.78 39.3117" stroke="#CCDDE2" stroke-width="3.69" stroke-miterlimit="10" stroke-dasharray="26.26 28.64 28.64 26.26"/>
<path d="M728.27 51.6406L503.22 667.001" stroke="#CCDDE2" stroke-width="3.69" stroke-miterlimit="10" stroke-dasharray="28.64 28.64 26.26 28.64 28.64 26.26"/>
<path d="M498.71 679.328L493.64 693.178" stroke="#CCDDE2" stroke-width="3.69" stroke-miterlimit="10"/>
<path d="M717.02 -30.3281L483.97 605.612" stroke="#CCDDE2" stroke-width="3.69" stroke-miterlimit="10" stroke-dasharray="29.61 29.61 27.14 29.61 29.61 27.14"/>
<path d="M479.3 618.352L474.22 632.202" stroke="#CCDDE2" stroke-width="3.69" stroke-miterlimit="10"/>
<path d="M703.99 -107.699L518.14 397.641" stroke="#CCDDE2" stroke-width="3.69" stroke-miterlimit="10" stroke-dasharray="31.6 31.6 28.96 31.6 31.6 28.96"/>
<path d="M513.14 411.23L508.05 425.08" stroke="#CCDDE2" stroke-width="3.69" stroke-miterlimit="10"/>
<path d="M697.88 -201.461L404.8 605.449" stroke="#CCDDE2" stroke-width="3.69" stroke-miterlimit="10" stroke-dasharray="29.9 29.9 27.41 29.9 29.9 27.41"/>
<path d="M400.12 618.34L395.08 632.2" stroke="#CCDDE2" stroke-width="3.69" stroke-miterlimit="10"/>
<path d="M687.42 -284.93L328.21 706.26" stroke="#CCDDE2" stroke-width="3.69" stroke-miterlimit="10" stroke-dasharray="30.52 30.52 27.98 30.52 30.52 27.98"/>
<path d="M323.45 719.41L318.42 733.27" stroke="#CCDDE2" stroke-width="3.69" stroke-miterlimit="10"/>
<path d="M681.16 -381.031L345.58 540.249" stroke="#CCDDE2" stroke-width="3.69" stroke-miterlimit="10" stroke-dasharray="28.39 28.39 26.02 28.39 28.39 26.02"/>
<path d="M341.13 552.48L336.08 566.331" stroke="#CCDDE2" stroke-width="3.69" stroke-miterlimit="10"/>
<path d="M529.61 -82.9492L496.41 7.84075" stroke="#CCDDE2" stroke-width="3.69" stroke-miterlimit="10" stroke-dasharray="26.26 28.64 28.64 26.26"/>
<path d="M491.9 20.1719L266.85 635.532" stroke="#CCDDE2" stroke-width="3.69" stroke-miterlimit="10" stroke-dasharray="28.64 28.64 26.26 28.64 28.64 26.26"/>
<path d="M262.34 647.859L257.28 661.709" stroke="#CCDDE2" stroke-width="3.69" stroke-miterlimit="10"/>
<path d="M480.66 -61.8008L247.6 574.139" stroke="#CCDDE2" stroke-width="3.69" stroke-miterlimit="10" stroke-dasharray="29.61 29.61 27.14 29.61 29.61 27.14"/>
<path d="M242.93 586.879L237.85 600.729" stroke="#CCDDE2" stroke-width="3.69" stroke-miterlimit="10"/>
<path d="M467.63 -139.172L281.77 366.168" stroke="#CCDDE2" stroke-width="3.69" stroke-miterlimit="10" stroke-dasharray="31.6 31.6 28.96 31.6 31.6 28.96"/>
<path d="M276.77 379.77L271.68 393.61" stroke="#CCDDE2" stroke-width="3.69" stroke-miterlimit="10"/>
<path d="M461.51 -232.93L168.43 573.98" stroke="#CCDDE2" stroke-width="3.69" stroke-miterlimit="10" stroke-dasharray="29.9 29.9 27.41 29.9 29.9 27.41"/>
<path d="M163.75 586.871L158.72 600.731" stroke="#CCDDE2" stroke-width="3.69" stroke-miterlimit="10"/>
<path d="M451.05 -316.398L91.8501 674.792" stroke="#CCDDE2" stroke-width="3.69" stroke-miterlimit="10" stroke-dasharray="30.52 30.52 27.98 30.52 30.52 27.98"/>
<path d="M87.0798 687.941L82.0498 701.801" stroke="#CCDDE2" stroke-width="3.69" stroke-miterlimit="10"/>
<path d="M444.79 -412.5L109.21 508.78" stroke="#CCDDE2" stroke-width="3.69" stroke-miterlimit="10" stroke-dasharray="28.39 28.39 26.02 28.39 28.39 26.02"/>
<path d="M104.76 521.012L99.71 534.862" stroke="#CCDDE2" stroke-width="3.69" stroke-miterlimit="10"/>
<path d="M621.89 420.23H581.41V948.91H621.89V420.23Z" stroke="#CCDDE2" stroke-width="3.69" stroke-miterlimit="10"/>
<path d="M259.69 827.16V420.23H581.41V948.91H527.2V786.54C527.192 780.028 524.599 773.784 519.989 769.183C515.38 764.581 509.133 761.998 502.62 762H340.82C334.305 761.998 328.056 764.583 323.447 769.186C318.838 773.79 316.245 780.036 316.24 786.55V948.91H263.48M259.69 887.71V860.16M298.3 695.43C297.96 695.429 297.624 695.361 297.311 695.229C296.998 695.098 296.714 694.906 296.475 694.664C296.236 694.423 296.047 694.136 295.92 693.822C295.792 693.507 295.727 693.17 295.73 692.83V672C295.73 671.318 296 670.663 296.482 670.18C296.964 669.696 297.617 669.423 298.3 669.42H340.25C340.591 669.418 340.929 669.483 341.245 669.611C341.561 669.739 341.848 669.929 342.091 670.168C342.333 670.408 342.526 670.693 342.658 671.008C342.79 671.322 342.859 671.659 342.86 672V692.8C342.861 693.143 342.795 693.483 342.664 693.799C342.533 694.116 342.341 694.404 342.098 694.645C341.855 694.887 341.567 695.079 341.25 695.208C340.932 695.338 340.593 695.403 340.25 695.4L298.3 695.43ZM372.05 729.21C372.045 729.896 371.768 730.551 371.281 731.033C370.793 731.514 370.135 731.783 369.45 731.78H327.45C326.765 731.783 326.106 731.514 325.619 731.033C325.132 730.551 324.855 729.896 324.85 729.21V708.38C324.855 707.694 325.131 707.038 325.618 706.555C326.106 706.072 326.764 705.8 327.45 705.8H369.45C370.136 705.8 370.794 706.072 371.281 706.555C371.768 707.038 372.045 707.694 372.05 708.38V729.21ZM351.05 692.83V672C351.05 671.66 351.117 671.323 351.248 671.009C351.379 670.694 351.571 670.409 351.813 670.169C352.054 669.929 352.341 669.74 352.656 669.611C352.972 669.483 353.309 669.418 353.65 669.42H395.6C396.286 669.42 396.944 669.692 397.431 670.175C397.918 670.658 398.195 671.314 398.2 672V692.8C398.2 693.142 398.133 693.48 398.002 693.795C397.871 694.111 397.68 694.398 397.438 694.639C397.197 694.88 396.91 695.072 396.595 695.203C396.279 695.333 395.941 695.4 395.6 695.4H353.66C353.32 695.403 352.983 695.339 352.669 695.211C352.354 695.083 352.068 694.894 351.826 694.655C351.585 694.417 351.393 694.133 351.261 693.819C351.13 693.506 351.061 693.17 351.06 692.83H351.05ZM427.18 729.21C427.18 729.892 426.909 730.546 426.427 731.028C425.945 731.51 425.292 731.78 424.61 731.78H382.61C381.927 731.78 381.273 731.51 380.789 731.028C380.306 730.547 380.033 729.893 380.03 729.21V708.38C380.033 707.697 380.305 707.042 380.789 706.559C381.272 706.076 381.926 705.803 382.61 705.8H424.61C425.292 705.803 425.946 706.076 426.428 706.56C426.91 707.043 427.18 707.698 427.18 708.38V729.21ZM453.53 692.83C453.533 693.173 453.467 693.512 453.337 693.829C453.208 694.145 453.016 694.433 452.774 694.675C452.532 694.917 452.245 695.108 451.928 695.238C451.611 695.368 451.272 695.433 450.93 695.43H409C408.659 695.43 408.322 695.363 408.008 695.232C407.694 695.101 407.408 694.909 407.168 694.668C406.929 694.426 406.739 694.139 406.611 693.824C406.482 693.509 406.417 693.171 406.42 692.83V672C406.423 671.317 406.695 670.662 407.179 670.179C407.662 669.696 408.316 669.423 409 669.42H450.95C451.29 669.418 451.628 669.483 451.943 669.611C452.259 669.74 452.546 669.929 452.787 670.169C453.029 670.409 453.221 670.694 453.352 671.009C453.483 671.323 453.55 671.66 453.55 672L453.53 692.83ZM508.86 692.83C508.863 693.171 508.798 693.509 508.669 693.824C508.541 694.139 508.351 694.426 508.111 694.668C507.872 694.909 507.586 695.101 507.272 695.232C506.958 695.363 506.62 695.43 506.28 695.43H464.28C463.938 695.433 463.598 695.368 463.282 695.238C462.965 695.108 462.677 694.917 462.436 694.675C462.194 694.433 462.002 694.145 461.872 693.829C461.743 693.512 461.677 693.173 461.68 692.83V672C461.68 671.66 461.747 671.323 461.878 671.009C462.009 670.694 462.201 670.409 462.443 670.169C462.684 669.929 462.971 669.74 463.286 669.611C463.602 669.483 463.939 669.418 464.28 669.42H506.28C506.964 669.42 507.62 669.692 508.104 670.176C508.588 670.66 508.86 671.316 508.86 672V692.83ZM547.7 614.71C547.703 621.226 545.118 627.476 540.515 632.087C535.911 636.698 529.666 639.292 523.15 639.3H318.38C311.861 639.295 305.61 636.702 301.002 632.092C296.393 627.481 293.803 621.23 293.8 614.71V528.05C293.8 521.531 296.39 515.279 300.999 510.67C305.609 506.06 311.861 503.47 318.38 503.47H523.16C526.386 503.47 529.581 504.106 532.562 505.342C535.542 506.578 538.25 508.389 540.53 510.672C542.81 512.954 544.618 515.664 545.85 518.646C547.082 521.628 547.714 524.824 547.71 528.05L547.7 614.71ZM544.11 474.71C542.981 475.85 541.636 476.755 540.155 477.371C538.673 477.987 537.084 478.303 535.48 478.3H308C304.759 478.295 301.652 477.005 299.361 474.712C297.071 472.419 295.783 469.312 295.78 466.07C295.804 462.841 297.1 459.752 299.388 457.474C301.676 455.195 304.771 453.911 308 453.9H535.49C537.908 453.898 540.272 454.613 542.283 455.956C544.294 457.299 545.861 459.208 546.785 461.443C547.709 463.677 547.949 466.135 547.475 468.506C547.001 470.877 545.833 473.054 544.12 474.76L544.11 474.71Z" stroke="#CCDDE2" stroke-width="3.69" stroke-miterlimit="10"/>
<path d="M340.25 695.432H298.3C297.96 695.431 297.624 695.362 297.311 695.231C296.998 695.099 296.714 694.907 296.475 694.666C296.236 694.424 296.048 694.138 295.92 693.823C295.792 693.508 295.727 693.172 295.73 692.832V672.002C295.73 671.319 296 670.665 296.482 670.181C296.964 669.698 297.618 669.425 298.3 669.422H340.25C340.591 669.419 340.929 669.484 341.245 669.612C341.561 669.741 341.848 669.93 342.091 670.17C342.333 670.41 342.526 670.695 342.658 671.009C342.79 671.324 342.859 671.661 342.86 672.002V692.802C342.865 693.147 342.802 693.49 342.673 693.81C342.544 694.13 342.352 694.421 342.109 694.666C341.866 694.911 341.576 695.105 341.257 695.237C340.938 695.368 340.595 695.435 340.25 695.432Z" stroke="#CCDDE2" stroke-width="3.69" stroke-miterlimit="10"/>
<path d="M327.49 705.801H369.49C370.176 705.801 370.834 706.072 371.321 706.555C371.808 707.039 372.085 707.695 372.09 708.381V729.211C372.085 729.896 371.808 730.551 371.321 731.033C370.834 731.515 370.175 731.783 369.49 731.781H327.49C326.805 731.783 326.146 731.515 325.659 731.033C325.172 730.551 324.895 729.896 324.89 729.211V708.381C324.895 707.695 325.172 707.039 325.659 706.555C326.146 706.072 326.804 705.801 327.49 705.801Z" stroke="#CCDDE2" stroke-width="3.69" stroke-miterlimit="10"/>
<path d="M398.21 672.002V692.802C398.21 693.143 398.143 693.482 398.012 693.797C397.881 694.112 397.69 694.399 397.449 694.64C397.207 694.882 396.92 695.073 396.605 695.204C396.29 695.335 395.951 695.402 395.61 695.402H353.66C353.318 695.405 352.979 695.339 352.662 695.209C352.345 695.08 352.058 694.888 351.816 694.646C351.574 694.404 351.382 694.117 351.253 693.8C351.123 693.483 351.057 693.144 351.06 692.802V672.002C351.06 671.661 351.127 671.324 351.258 671.01C351.389 670.696 351.581 670.41 351.823 670.171C352.064 669.931 352.351 669.741 352.667 669.613C352.982 669.484 353.32 669.419 353.66 669.422H395.61C396.296 669.422 396.954 669.693 397.441 670.176C397.928 670.66 398.205 671.316 398.21 672.002Z" stroke="#CCDDE2" stroke-width="3.69" stroke-miterlimit="10"/>
<path d="M424.62 705.801H382.63C381.211 705.801 380.06 706.951 380.06 708.371V729.211C380.06 730.63 381.211 731.781 382.63 731.781H424.62C426.039 731.781 427.19 730.63 427.19 729.211V708.371C427.19 706.951 426.039 705.801 424.62 705.801Z" stroke="#CCDDE2" stroke-width="3.69" stroke-miterlimit="10"/>
<path d="M409 695.432C408.659 695.432 408.322 695.365 408.008 695.234C407.694 695.103 407.408 694.911 407.169 694.669C406.929 694.428 406.739 694.141 406.611 693.825C406.482 693.51 406.417 693.172 406.42 692.832V672.002C406.423 671.319 406.695 670.664 407.179 670.181C407.662 669.697 408.317 669.425 409 669.422H450.95C451.29 669.419 451.628 669.484 451.943 669.613C452.259 669.741 452.546 669.931 452.787 670.171C453.029 670.41 453.221 670.696 453.352 671.01C453.483 671.324 453.55 671.661 453.55 672.002V692.802C453.553 693.144 453.487 693.483 453.357 693.8C453.228 694.117 453.036 694.404 452.794 694.646C452.552 694.888 452.265 695.08 451.948 695.209C451.631 695.339 451.292 695.405 450.95 695.402L409 695.432Z" stroke="#CCDDE2" stroke-width="3.69" stroke-miterlimit="10"/>
<path d="M464.34 695.432C463.998 695.435 463.658 695.369 463.342 695.239C463.025 695.11 462.737 694.918 462.496 694.676C462.254 694.434 462.062 694.147 461.932 693.83C461.803 693.513 461.737 693.174 461.74 692.832V672.002C461.74 671.661 461.807 671.324 461.938 671.01C462.069 670.696 462.261 670.41 462.503 670.171C462.744 669.931 463.031 669.741 463.346 669.613C463.662 669.484 463.999 669.419 464.34 669.422H506.34C507.024 669.422 507.68 669.694 508.164 670.178C508.648 670.661 508.92 671.318 508.92 672.002V692.802C508.923 693.142 508.858 693.48 508.729 693.795C508.601 694.111 508.411 694.398 508.171 694.639C507.932 694.881 507.646 695.073 507.332 695.204C507.018 695.335 506.68 695.402 506.34 695.402L464.34 695.432Z" stroke="#CCDDE2" stroke-width="3.69" stroke-miterlimit="10"/>
<path d="M527.2 786.54V948.91H316.2V786.54C316.204 783.312 316.844 780.116 318.084 777.135C319.323 774.154 321.138 771.447 323.425 769.168C325.711 766.889 328.424 765.083 331.409 763.853C334.394 762.623 337.592 761.993 340.82 762H502.62C509.133 761.997 515.38 764.581 519.989 769.182C524.599 773.784 527.192 780.027 527.2 786.54Z" stroke="#CCDDE2" stroke-width="3.69" stroke-miterlimit="10"/>
<path d="M295.73 466.118C295.741 462.872 297.038 459.762 299.339 457.472C301.639 455.181 304.754 453.896 308 453.898H535.49C538.672 453.989 541.693 455.317 543.911 457.6C546.129 459.883 547.37 462.94 547.37 466.123C547.37 469.306 546.129 472.364 543.911 474.647C541.693 476.93 538.672 478.257 535.49 478.348H308C306.391 478.352 304.797 478.039 303.309 477.426C301.821 476.814 300.469 475.914 299.329 474.778C298.189 473.642 297.285 472.292 296.667 470.806C296.05 469.321 295.731 467.728 295.73 466.118Z" stroke="#CCDDE2" stroke-width="3.69" stroke-miterlimit="10"/>
<path d="M408.5 540.162V602.702C408.5 607.288 406.679 611.687 403.437 614.931C400.194 618.175 395.797 619.999 391.21 620.002H330.58C328.307 620 326.057 619.551 323.958 618.68C321.859 617.809 319.952 616.532 318.346 614.924C316.741 613.316 315.468 611.406 314.6 609.306C313.733 607.205 313.287 604.954 313.29 602.682V540.162C313.287 537.889 313.733 535.639 314.6 533.539C315.468 531.439 316.741 529.53 318.347 527.923C319.953 526.315 321.86 525.04 323.959 524.17C326.058 523.299 328.308 522.852 330.58 522.852H391.21C393.482 522.852 395.732 523.299 397.831 524.17C399.93 525.04 401.837 526.315 403.443 527.923C405.049 529.53 406.322 531.439 407.19 533.539C408.057 535.639 408.503 537.889 408.5 540.162Z" stroke="#CCDDE2" stroke-width="3.69" stroke-miterlimit="10"/>
<path d="M527.58 540.08V602.789C527.581 605.061 527.135 607.311 526.267 609.411C525.399 611.51 524.125 613.418 522.52 615.025C520.914 616.633 519.008 617.908 516.91 618.779C514.811 619.649 512.562 620.098 510.29 620.099H449.49C447.218 620.098 444.969 619.649 442.87 618.779C440.772 617.908 438.865 616.633 437.26 615.025C435.654 613.418 434.381 611.51 433.513 609.411C432.645 607.311 432.199 605.061 432.2 602.789V540.08C432.199 537.808 432.645 535.558 433.513 533.458C434.381 531.359 435.654 529.451 437.26 527.844C438.865 526.236 440.772 524.961 442.87 524.09C444.969 523.22 447.218 522.771 449.49 522.77H510.29C512.562 522.771 514.811 523.22 516.91 524.09C519.008 524.961 520.914 526.236 522.52 527.844C524.125 529.451 525.399 531.359 526.267 533.458C527.135 535.558 527.581 537.808 527.58 540.08Z" stroke="#CCDDE2" stroke-width="3.69" stroke-miterlimit="10"/>
<path d="M523.16 503.469H318.38C311.861 503.469 305.609 506.058 300.999 510.668C296.39 515.278 293.8 521.53 293.8 528.049V614.709C293.803 621.228 296.393 627.479 301.002 632.09C305.61 636.701 311.861 639.293 318.38 639.299H523.16C529.676 639.291 535.921 636.696 540.525 632.085C545.128 627.474 547.713 621.224 547.71 614.709V528.049C547.714 524.822 547.082 521.627 545.85 518.645C544.618 515.663 542.81 512.953 540.53 510.67C538.25 508.387 535.542 506.576 532.562 505.34C529.581 504.105 526.387 503.469 523.16 503.469ZM408.5 602.699C408.5 607.285 406.679 611.684 403.437 614.928C400.194 618.172 395.797 619.996 391.21 619.999H330.58C328.307 619.997 326.057 619.548 323.958 618.677C321.859 617.806 319.952 616.53 318.346 614.921C316.741 613.313 315.468 611.404 314.6 609.303C313.733 607.202 313.287 604.951 313.29 602.679V540.159C313.287 537.886 313.733 535.636 314.6 533.536C315.468 531.436 316.741 529.528 318.347 527.92C319.953 526.312 321.86 525.037 323.959 524.167C326.058 523.297 328.308 522.849 330.58 522.849H391.21C393.482 522.849 395.732 523.297 397.831 524.167C399.93 525.037 401.837 526.312 403.443 527.92C405.049 529.528 406.322 531.436 407.19 533.536C408.057 535.636 408.503 537.886 408.5 540.159V602.699ZM527.58 602.789C527.581 605.061 527.135 607.311 526.267 609.41C525.399 611.509 524.126 613.417 522.52 615.025C520.915 616.632 519.008 617.907 516.91 618.778C514.811 619.649 512.562 620.097 510.29 620.099H449.49C447.218 620.097 444.969 619.649 442.87 618.778C440.772 617.907 438.866 616.632 437.26 615.025C435.655 613.417 434.381 611.509 433.513 609.41C432.645 607.311 432.199 605.061 432.2 602.789V540.079C432.199 537.807 432.645 535.557 433.513 533.458C434.381 531.358 435.655 529.45 437.26 527.843C438.866 526.235 440.772 524.96 442.87 524.089C444.969 523.219 447.218 522.77 449.49 522.769H510.29C512.562 522.77 514.811 523.219 516.91 524.089C519.008 524.96 520.915 526.235 522.52 527.843C524.126 529.45 525.399 531.358 526.267 533.458C527.135 535.557 527.581 537.807 527.58 540.079V602.789Z" stroke="#CCDDE2" stroke-width="3.69" stroke-miterlimit="10"/>
<path d="M408.5 540.162V602.702C408.5 607.288 406.679 611.687 403.437 614.931C400.194 618.175 395.797 619.999 391.21 620.002H330.58C328.307 620 326.057 619.551 323.958 618.68C321.859 617.809 319.952 616.532 318.346 614.924C316.741 613.316 315.468 611.406 314.6 609.306C313.733 607.205 313.287 604.954 313.29 602.682V540.162C313.287 537.889 313.733 535.639 314.6 533.539C315.468 531.439 316.741 529.53 318.347 527.923C319.953 526.315 321.86 525.04 323.959 524.17C326.058 523.299 328.308 522.852 330.58 522.852H391.21C393.482 522.852 395.732 523.299 397.831 524.17C399.93 525.04 401.837 526.315 403.443 527.923C405.049 529.53 406.322 531.439 407.19 533.539C408.057 535.639 408.503 537.889 408.5 540.162Z" stroke="#CCDDE2" stroke-width="3.69" stroke-miterlimit="10"/>
<path d="M527.58 540.08V602.789C527.581 605.061 527.135 607.311 526.267 609.411C525.399 611.51 524.125 613.418 522.52 615.025C520.914 616.633 519.008 617.908 516.91 618.779C514.811 619.649 512.562 620.098 510.29 620.099H449.49C447.218 620.098 444.969 619.649 442.87 618.779C440.772 617.908 438.865 616.633 437.26 615.025C435.654 613.418 434.381 611.51 433.513 609.411C432.645 607.311 432.199 605.061 432.2 602.789V540.08C432.199 537.808 432.645 535.558 433.513 533.458C434.381 531.359 435.654 529.451 437.26 527.844C438.865 526.236 440.772 524.961 442.87 524.09C444.969 523.22 447.218 522.771 449.49 522.77H510.29C512.562 522.771 514.811 523.22 516.91 524.09C519.008 524.961 520.914 526.236 522.52 527.844C524.125 529.451 525.399 531.359 526.267 533.458C527.135 535.558 527.581 537.808 527.58 540.08Z" stroke="#CCDDE2" stroke-width="3.69" stroke-miterlimit="10"/>
<path d="M527.58 540.08V602.789C527.581 605.061 527.135 607.311 526.267 609.411C525.399 611.51 524.125 613.418 522.52 615.025C520.914 616.633 519.008 617.908 516.91 618.779C514.811 619.649 512.562 620.098 510.29 620.099H449.49C447.218 620.098 444.969 619.649 442.87 618.779C440.772 617.908 438.865 616.633 437.26 615.025C435.654 613.418 434.381 611.51 433.513 609.411C432.645 607.311 432.199 605.061 432.2 602.789V540.08C432.199 537.808 432.645 535.558 433.513 533.458C434.381 531.359 435.654 529.451 437.26 527.844C438.865 526.236 440.772 524.961 442.87 524.09C444.969 523.22 447.218 522.771 449.49 522.77H510.29C512.562 522.771 514.811 523.22 516.91 524.09C519.008 524.961 520.914 526.236 522.52 527.844C524.125 529.451 525.399 531.359 526.267 533.458C527.135 535.558 527.581 537.808 527.58 540.08Z" stroke="#CCDDE2" stroke-width="3.69" stroke-miterlimit="10"/>
<path d="M408.5 540.162V602.702C408.5 607.288 406.679 611.687 403.437 614.931C400.194 618.175 395.797 619.999 391.21 620.002H330.58C328.307 620 326.057 619.551 323.958 618.68C321.859 617.809 319.952 616.532 318.346 614.924C316.741 613.316 315.468 611.406 314.6 609.306C313.733 607.205 313.287 604.954 313.29 602.682V540.162C313.287 537.889 313.733 535.639 314.6 533.539C315.468 531.439 316.741 529.53 318.347 527.923C319.953 526.315 321.86 525.04 323.959 524.17C326.058 523.299 328.308 522.852 330.58 522.852H391.21C393.482 522.852 395.732 523.299 397.831 524.17C399.93 525.04 401.837 526.315 403.443 527.923C405.049 529.53 406.322 531.439 407.19 533.539C408.057 535.639 408.503 537.889 408.5 540.162Z" stroke="#CCDDE2" stroke-width="3.69" stroke-miterlimit="10"/>
<path d="M527.2 786.54V948.91H316.2V786.54C316.204 783.312 316.844 780.116 318.084 777.135C319.323 774.154 321.138 771.447 323.425 769.168C325.711 766.889 328.424 765.083 331.409 763.853C334.394 762.623 337.592 761.993 340.82 762H502.62C509.133 761.997 515.38 764.581 519.989 769.182C524.599 773.784 527.192 780.027 527.2 786.54Z" stroke="#CCDDE2" stroke-width="3.69" stroke-miterlimit="10"/>
<path d="M342.86 672.002V692.802C342.861 693.145 342.795 693.484 342.664 693.801C342.533 694.118 342.341 694.405 342.098 694.647C341.855 694.889 341.567 695.08 341.25 695.21C340.932 695.339 340.593 695.405 340.25 695.402H298.3C297.96 695.401 297.624 695.332 297.311 695.201C296.998 695.069 296.714 694.877 296.475 694.636C296.236 694.394 296.048 694.108 295.92 693.793C295.792 693.478 295.727 693.142 295.73 692.802V672.002C295.73 671.319 296 670.665 296.482 670.181C296.964 669.698 297.618 669.425 298.3 669.422H340.25C340.591 669.419 340.929 669.484 341.245 669.612C341.561 669.741 341.848 669.93 342.091 670.17C342.333 670.41 342.526 670.695 342.658 671.009C342.79 671.324 342.859 671.661 342.86 672.002Z" stroke="#CCDDE2" stroke-width="3.69" stroke-miterlimit="10"/>
<path d="M398.21 672.002V692.802C398.21 693.143 398.143 693.482 398.012 693.797C397.881 694.112 397.69 694.399 397.449 694.64C397.207 694.882 396.92 695.073 396.605 695.204C396.29 695.335 395.951 695.402 395.61 695.402H353.66C353.318 695.405 352.979 695.339 352.662 695.209C352.345 695.08 352.058 694.888 351.816 694.646C351.574 694.404 351.382 694.117 351.253 693.8C351.123 693.483 351.057 693.144 351.06 692.802V672.002C351.06 671.661 351.127 671.324 351.258 671.01C351.389 670.696 351.581 670.41 351.823 670.171C352.064 669.931 352.351 669.741 352.667 669.613C352.982 669.484 353.32 669.419 353.66 669.422H395.61C396.296 669.422 396.954 669.693 397.441 670.176C397.928 670.66 398.205 671.316 398.21 672.002Z" stroke="#CCDDE2" stroke-width="3.69" stroke-miterlimit="10"/>
<path d="M453.54 672.002V692.802C453.543 693.144 453.477 693.483 453.347 693.8C453.218 694.117 453.026 694.404 452.784 694.646C452.542 694.888 452.255 695.08 451.938 695.209C451.621 695.339 451.282 695.405 450.94 695.402H409C408.659 695.402 408.322 695.335 408.008 695.204C407.694 695.073 407.408 694.881 407.169 694.639C406.929 694.397 406.739 694.111 406.611 693.795C406.482 693.48 406.417 693.142 406.42 692.802V672.002C406.423 671.318 406.695 670.664 407.179 670.181C407.662 669.697 408.317 669.425 409 669.422H450.95C451.29 669.421 451.626 669.486 451.94 669.615C452.255 669.745 452.54 669.934 452.781 670.174C453.021 670.414 453.212 670.699 453.343 671.012C453.473 671.326 453.54 671.662 453.54 672.002Z" stroke="#CCDDE2" stroke-width="3.69" stroke-miterlimit="10"/>
<path d="M508.87 672.002V692.802C508.873 693.142 508.808 693.48 508.679 693.795C508.551 694.111 508.361 694.398 508.121 694.639C507.882 694.881 507.596 695.073 507.282 695.204C506.968 695.335 506.631 695.402 506.29 695.402H464.29C463.948 695.405 463.609 695.339 463.292 695.209C462.975 695.08 462.688 694.888 462.446 694.646C462.204 694.404 462.012 694.117 461.882 693.8C461.753 693.483 461.687 693.144 461.69 692.802V672.002C461.69 671.661 461.757 671.324 461.888 671.01C462.019 670.696 462.211 670.41 462.453 670.171C462.694 669.931 462.981 669.741 463.297 669.613C463.612 669.484 463.95 669.419 464.29 669.422H506.29C506.974 669.422 507.631 669.694 508.114 670.178C508.598 670.661 508.87 671.318 508.87 672.002Z" stroke="#CCDDE2" stroke-width="3.69" stroke-miterlimit="10"/>
<path d="M372.05 708.381V729.211C372.045 729.896 371.768 730.551 371.281 731.033C370.793 731.515 370.135 731.783 369.45 731.781H327.45C326.765 731.783 326.106 731.515 325.619 731.033C325.132 730.551 324.855 729.896 324.85 729.211V708.381C324.855 707.695 325.132 707.039 325.619 706.555C326.106 706.072 326.764 705.801 327.45 705.801H369.45C370.136 705.801 370.794 706.072 371.281 706.555C371.768 707.039 372.045 707.695 372.05 708.381Z" stroke="#CCDDE2" stroke-width="3.69" stroke-miterlimit="10"/>
<path d="M424.62 705.801H382.63C381.211 705.801 380.06 706.951 380.06 708.371V729.211C380.06 730.63 381.211 731.781 382.63 731.781H424.62C426.039 731.781 427.19 730.63 427.19 729.211V708.371C427.19 706.951 426.039 705.801 424.62 705.801Z" stroke="#CCDDE2" stroke-width="3.69" stroke-miterlimit="10"/>
<path d="M547.71 466.118C547.702 469.358 546.412 472.463 544.123 474.754C541.833 477.046 538.729 478.338 535.49 478.348H308C304.759 478.343 301.652 477.053 299.362 474.76C297.071 472.467 295.783 469.359 295.78 466.118C295.791 462.881 297.081 459.779 299.371 457.489C301.66 455.2 304.762 453.909 308 453.898H535.49C538.731 453.898 541.839 455.186 544.131 457.478C546.423 459.769 547.71 462.877 547.71 466.118Z" stroke="#CCDDE2" stroke-width="3.69" stroke-miterlimit="10"/>
<path d="M504.07 780.809H338.74C336.083 780.809 333.93 782.962 333.93 785.619V790.099C333.93 792.755 336.083 794.909 338.74 794.909H504.07C506.726 794.909 508.88 792.755 508.88 790.099V785.619C508.88 782.962 506.726 780.809 504.07 780.809Z" stroke="#CCDDE2" stroke-width="3.69" stroke-miterlimit="10"/>
<path d="M504.07 809.91H338.74C336.083 809.91 333.93 812.064 333.93 814.72V819.2C333.93 821.857 336.083 824.01 338.74 824.01H504.07C506.726 824.01 508.88 821.857 508.88 819.2V814.72C508.88 812.064 506.726 809.91 504.07 809.91Z" stroke="#CCDDE2" stroke-width="3.69" stroke-miterlimit="10"/>
<path d="M504.07 839.012H338.74C336.083 839.012 333.93 841.165 333.93 843.822V848.302C333.93 850.958 336.083 853.112 338.74 853.112H504.07C506.726 853.112 508.88 850.958 508.88 848.302V843.822C508.88 841.165 506.726 839.012 504.07 839.012Z" stroke="#CCDDE2" stroke-width="3.69" stroke-miterlimit="10"/>
<path d="M504.07 868.121H338.74C336.083 868.121 333.93 870.275 333.93 872.931V877.411C333.93 880.068 336.083 882.221 338.74 882.221H504.07C506.726 882.221 508.88 880.068 508.88 877.411V872.931C508.88 870.275 506.726 868.121 504.07 868.121Z" stroke="#CCDDE2" stroke-width="3.69" stroke-miterlimit="10"/>
<path d="M504.07 897.219H338.74C336.083 897.219 333.93 899.372 333.93 902.029V906.509C333.93 909.165 336.083 911.319 338.74 911.319H504.07C506.726 911.319 508.88 909.165 508.88 906.509V902.029C508.88 899.372 506.726 897.219 504.07 897.219Z" stroke="#CCDDE2" stroke-width="3.69" stroke-miterlimit="10"/>
<path d="M228.36 372.07H643.06C649.091 372.07 654.875 374.466 659.14 378.731C663.404 382.995 665.8 388.779 665.8 394.81V419.81H205.63V394.81C205.63 388.781 208.024 382.999 212.287 378.734C216.549 374.47 222.331 372.073 228.36 372.07Z" stroke="#CCDDE2" stroke-width="3.69" stroke-miterlimit="10"/>
<path d="M621.88 751.859H666.12V792.129H708.11V838.359H748.99V874.569H789.23V906.429H831.55V948.899H621.88V751.859Z" stroke="#CCDDE2" stroke-width="3.69" stroke-miterlimit="10"/>
<path d="M630.22 662.73H666.41H667.51L708.18 703.391L749.16 744.38L789.24 784.451L808.19 803.41" stroke="#CCDDE2" stroke-width="3.69" stroke-miterlimit="10"/>
<path d="M666.41 792.119V662.719" stroke="#CCDDE2" stroke-width="3.69" stroke-miterlimit="10"/>
<path d="M789.24 874.579V784.449" stroke="#CCDDE2" stroke-width="3.69" stroke-miterlimit="10"/>
<path d="M708.18 810.241V703.391" stroke="#CCDDE2" stroke-width="3.69" stroke-miterlimit="10"/>
<path d="M749 744.379V841.899" stroke="#CCDDE2" stroke-width="3.69" stroke-miterlimit="10"/>
<path d="M259.54 860.398V887.708" stroke="#CCDDE2" stroke-width="3.69" stroke-miterlimit="10"/>
<path d="M219.06 887.711V870.931C220.78 875.861 225.39 880.151 231.34 882.271C229.41 868.201 225.63 846.091 219.06 826.191" stroke="#CCDDE2" stroke-width="3.69" stroke-miterlimit="10"/>
<path d="M259.54 805.681V571.391H219.06V795.151" stroke="#CCDDE2" stroke-width="3.69" stroke-miterlimit="10"/>
<path d="M219.06 870.93V887.71" stroke="#CCDDE2" stroke-width="3.69" stroke-miterlimit="10"/>
<path d="M239.68 836.872C241.89 835.082 244.45 833.432 246.22 831.452C251.22 825.902 249.28 818.802 252.46 812.712C256.34 805.272 268.54 800.082 280.53 800.712C279.388 804.219 278.611 807.835 278.21 811.502C277.85 814.762 278.7 818.382 277.77 821.502C276.24 826.582 268.1 829.662 267.11 834.872C266.23 839.482 271.63 843.782 270.73 848.472C269.79 853.472 262.06 856.282 259.21 860.732C256.89 864.352 257.98 868.492 256.78 872.342C255.32 876.982 250.27 881.092 243.64 883.022L242.99 883.212C240.555 881.13 238.469 878.672 236.81 875.932" stroke="#CCDDE2" stroke-width="3.69" stroke-miterlimit="10"/>
<path d="M273.21 806.602C255.33 824.832 246.92 863.282 243.65 883.112C243.383 884.792 243.143 886.322 242.93 887.702" stroke="#CCDDE2" stroke-width="3.69" stroke-miterlimit="10"/>
<path d="M274.86 898.871L266.63 944.871C266.4 946.16 265.724 947.327 264.72 948.168C263.717 949.009 262.449 949.47 261.14 949.471H218.14C216.817 949.472 215.537 949.003 214.528 948.148C213.518 947.293 212.846 946.106 212.63 944.801L205.04 898.881L274.86 898.871Z" stroke="#CCDDE2" stroke-width="3.69" stroke-miterlimit="10"/>
<path d="M282.67 893.739C282.557 895.136 281.922 896.44 280.892 897.39C279.862 898.341 278.512 898.869 277.11 898.869H203C201.62 898.871 200.288 898.361 199.263 897.438C198.237 896.514 197.591 895.242 197.45 893.869C197.367 893.091 197.449 892.304 197.69 891.559C197.932 890.815 198.327 890.129 198.85 889.547C199.374 888.966 200.013 888.5 200.728 888.182C201.443 887.864 202.217 887.699 203 887.699H277.16C277.927 887.706 278.685 887.871 279.385 888.184C280.086 888.497 280.714 888.951 281.231 889.518C281.748 890.085 282.143 890.753 282.391 891.479C282.638 892.205 282.733 892.975 282.67 893.739Z" stroke="#CCDDE2" stroke-width="3.69" stroke-miterlimit="10"/>
<path d="M219.06 870.931C218.932 870.605 218.825 870.271 218.74 869.931C217.56 865.481 218.61 860.651 216.38 856.471C213.65 851.321 206.25 848.111 205.31 842.261C204.48 836.851 209.65 831.831 208.79 826.501C207.86 820.501 200.03 816.901 198.55 811.011C197.67 807.361 198.47 803.151 198.15 799.371C197.759 795.151 197.006 790.972 195.9 786.881C204.75 786.261 213.7 789.671 219.06 795.191C220.666 796.787 221.958 798.669 222.87 800.741C225.87 807.741 224.1 816.021 228.87 822.451C231.47 825.941 235.79 828.541 238.01 832.181C238.75 833.375 239.269 834.693 239.54 836.071C239.54 836.181 239.54 836.281 239.6 836.361C239.645 836.539 239.679 836.719 239.7 836.901C240.51 842.291 238.44 848.131 239.11 853.681C239.7 858.291 242.2 862.901 240.78 867.411C239.759 870.432 238.418 873.335 236.78 876.071C235.45 878.425 233.82 880.597 231.93 882.531C231.72 882.468 231.513 882.395 231.31 882.311C229.38 868.241 225.6 846.131 219.03 826.231" stroke="#CCDDE2" stroke-width="3.69" stroke-miterlimit="10"/>
<path d="M232 887.691C231.81 886.051 231.57 884.251 231.3 882.271C229.37 868.201 225.59 846.091 219.02 826.191C214.87 813.571 209.59 801.831 202.91 793.621" stroke="#CCDDE2" stroke-width="3.69" stroke-miterlimit="10"/>
<path d="M228.88 822.401C228.88 822.401 230.06 804.051 239.96 798.471C249.86 792.891 249.65 824.181 249.65 824.181" stroke="#CCDDE2" stroke-width="3.69" stroke-miterlimit="10"/>
<path d="M239.68 836.87C238.558 829.89 239.078 822.744 241.2 816" stroke="#CCDDE2" stroke-width="3.69" stroke-miterlimit="10"/>
<path d="M739.24 852.501L650.8 777.671L635.56 752.601L631.46 728.231L635.8 692.001L641 659.001C653.28 659.381 668 657.141 674.69 654.001C675.505 653.654 676.193 653.063 676.658 652.309C677.124 651.555 677.344 650.676 677.29 649.791V649.521C677.35 645.641 677.51 618.931 677.7 588.391C677.7 583.691 677.7 578.881 677.78 574.101C677.78 572.881 677.78 571.661 677.78 570.461C677.78 569.261 677.78 568.041 677.78 566.821V563.101C677.78 560.711 677.78 558.321 677.78 555.951C677.78 554.761 677.78 553.561 677.78 552.371C677.91 526.071 678.05 502.371 678.1 493.201V489.421V489.231C678.56 490.751 679.02 492.231 679.49 493.791C679.511 493.867 679.537 493.94 679.57 494.011C680 495.451 680.44 496.951 680.87 498.411C680.876 498.497 680.896 498.582 680.93 498.661C682.26 503.281 683.53 507.951 684.73 512.591C684.73 512.681 684.78 512.781 684.81 512.871C685.19 514.331 685.55 515.771 685.9 517.211C685.9 517.321 685.98 517.431 686.01 517.571C687.15 522.161 688.21 526.721 689.24 531.201C689.24 531.341 689.29 531.451 689.32 531.581C689.62 532.921 689.92 534.271 690.19 535.581C690.25 535.771 690.27 535.931 690.33 536.121C691.33 540.471 692.15 544.711 692.96 548.811C693.02 549.031 693.04 549.241 693.1 549.461C693.32 550.581 693.53 551.691 693.75 552.781C693.8 553.051 693.86 553.321 693.91 553.591C694.13 554.731 694.35 555.851 694.54 556.961C694.54 557.101 694.54 557.261 694.62 557.391C694.86 558.671 695.11 559.951 695.35 561.201V561.281C695.57 562.421 695.76 563.561 695.98 564.681C696.03 565.001 696.09 565.301 696.14 565.681C696.28 566.521 696.44 567.331 696.58 568.151C696.58 568.481 696.68 568.831 696.74 569.151C696.9 569.971 697.04 570.761 697.17 571.551C697.202 571.824 697.249 572.094 697.31 572.361C697.47 573.361 697.64 574.361 697.8 575.361C697.8 575.611 697.88 575.821 697.91 576.071C698.04 576.801 698.15 577.511 698.26 578.191C698.31 578.591 698.4 578.971 698.45 579.361C698.5 579.751 698.61 580.361 698.67 580.771C698.73 581.181 698.8 581.641 698.89 582.071C698.98 582.501 698.99 582.751 699.05 583.071C699.099 583.545 699.173 584.015 699.27 584.481C699.27 584.621 699.27 584.751 699.27 584.891C699.46 586.061 699.62 587.171 699.76 588.201C699.76 588.201 699.76 588.201 699.76 588.261C699.84 588.771 699.89 589.261 699.97 589.751C699.97 589.831 699.97 589.891 699.97 589.971C700.57 594.021 700.84 596.301 700.84 596.301H709.02V598.911C709.015 599.36 708.832 599.789 708.512 600.104C708.191 600.419 707.759 600.594 707.31 600.591C703.372 600.597 699.598 602.164 696.815 604.951C694.033 607.737 692.47 611.514 692.47 615.451V619.451C692.47 624.121 695.32 628.851 700.02 629.961C700.772 630.144 701.538 630.264 702.31 630.321C702.904 630.396 703.502 630.423 704.1 630.401C706.82 630.401 709.53 630.071 712.22 630.071C714.91 630.071 717.36 630.071 719.94 630.071H730.29C739.58 630.071 747.13 619.801 747.13 610.481V593.531H746.93C747.05 588.771 747.13 583.971 747.13 579.071C747.13 488.251 725.07 377.511 647.54 342.771H647.45H647.4C641.245 339.99 634.87 337.725 628.34 336.001C625.73 335.321 623.07 334.701 620.34 334.161L613.46 307.261H613.52L610.61 295.881C610.61 295.881 621.12 286.781 623.13 266.241C640.13 268.951 654.13 269.661 663.61 268.111C664.546 267.982 665.474 267.802 666.39 267.571H666.63C672.34 266.211 676.06 263.851 677.39 260.431C677.967 258.8 678.068 257.038 677.68 255.351C677.68 254.831 677.74 254.351 677.77 253.741C677.91 254.198 678.027 254.662 678.12 255.131C679.21 229.181 677.39 114.561 565.53 64.1312L566.53 64.7812L565.2 64.0012L564.46 63.7012L565.55 63.9712C565.22 63.8412 563.46 63.1612 560.44 62.1512C536 53.3112 422.81 19.6012 348.58 125.281H348.64C347.248 126.246 346.156 127.584 345.49 129.141C345.39 129.443 345.307 129.75 345.24 130.061C345.142 130.366 345.062 130.677 345 130.991C345 131.231 345 131.501 345 131.771C345 132.041 344.95 132.561 345 133.001C345 133.211 345.11 133.491 345.14 133.731C345.182 134.2 345.262 134.665 345.38 135.121C345.44 135.361 345.55 135.581 345.63 135.821C345.779 136.358 345.959 136.886 346.17 137.401C346.25 137.611 346.39 137.861 346.5 138.081C346.76 138.666 347.05 139.237 347.37 139.791C347.48 140.011 347.64 140.221 347.77 140.471C348.13 141.071 348.51 141.661 348.94 142.311C349.08 142.531 349.27 142.751 349.43 142.971C349.89 143.638 350.38 144.288 350.9 144.921L351.5 145.601C352.04 146.281 352.61 146.961 353.26 147.671C353.45 147.881 353.7 148.131 353.89 148.351C354.57 149.051 355.22 149.761 355.95 150.491L356.63 151.141C357.42 151.911 358.18 152.671 359.02 153.431C359.27 153.641 359.51 153.861 359.76 154.051C360.63 154.841 361.49 155.651 362.45 156.441C362.69 156.661 362.96 156.881 363.23 157.091C364.18 157.911 365.16 158.721 366.23 159.541C366.51 159.761 366.81 159.971 367.08 160.191C368.14 161.031 369.2 161.881 370.34 162.721C370.61 162.941 370.91 163.151 371.18 163.371C372.35 164.211 373.52 165.081 374.71 165.981L375.66 166.631C376.88 167.501 378.13 168.371 379.44 169.271C379.762 169.512 380.095 169.735 380.44 169.941C381.773 170.841 383.107 171.738 384.44 172.631C384.79 172.851 385.14 173.101 385.5 173.311C386.88 174.211 388.27 175.131 389.74 176.061L390.88 176.761C392.32 177.661 393.78 178.581 395.3 179.511C395.69 179.751 396.09 179.971 396.5 180.211C398.02 181.141 399.57 182.061 401.15 182.991C401.58 183.231 402.02 183.501 402.42 183.751C404.03 184.671 405.6 185.591 407.26 186.521C407.69 186.791 408.18 187.031 408.64 187.311C410.27 188.231 411.9 189.131 413.59 190.051C414.1 190.351 414.59 190.621 415.14 190.891C416.8 191.821 418.48 192.711 420.14 193.641C420.66 193.911 421.2 194.181 421.74 194.481C423.46 195.371 425.19 196.301 426.96 197.221C427.53 197.491 428.07 197.791 428.64 198.061C430.41 198.961 432.2 199.881 434 200.781C434.62 201.111 435.25 201.411 435.84 201.701C437.64 202.601 439.43 203.471 441.25 204.371C441.9 204.691 442.58 205.021 443.25 205.321C445.07 206.211 446.89 207.081 448.74 207.951C449.42 208.281 450.16 208.611 450.86 208.951C452.68 209.821 454.5 210.661 456.38 211.531C457.14 211.891 457.9 212.211 458.66 212.531C460.51 213.381 462.33 214.221 464.2 215.031C464.99 215.391 465.8 215.771 466.62 216.121L472.19 218.571C473.06 218.921 473.9 219.301 474.77 219.651C476.62 220.471 478.49 221.261 480.37 222.041C481.26 222.421 482.16 222.781 483.03 223.161C484.9 223.951 486.8 224.731 488.71 225.491C489.63 225.871 490.58 226.251 491.5 226.641C492.92 227.211 494.33 227.801 495.77 228.371C495.77 228.371 536.17 246.281 557.77 250.271L558.07 250.351C557.74 251.901 557.44 253.481 557.14 255.051C556.693 257.31 555.915 259.49 554.83 261.521L548.15 274.021C547.998 274.323 547.925 274.658 547.937 274.995C547.95 275.332 548.047 275.661 548.221 275.951C548.395 276.24 548.639 276.481 548.931 276.651C549.222 276.82 549.552 276.914 549.89 276.921H552.77C552.77 277.141 552.77 277.361 552.77 277.581V278.771C552.716 281.893 552.843 285.014 553.15 288.121C553.156 288.162 553.173 288.2 553.2 288.231C554.1 296.811 556.79 306.401 563.99 307.921C564.2 307.921 564.45 307.921 564.69 307.981C565.148 308.076 565.613 308.129 566.08 308.141C566.08 308.141 566.08 308.141 566.14 308.141C568.324 308.118 570.5 307.863 572.63 307.381L577.17 331.861L577.25 332.241V332.351H577.19V332.241C577.134 332.249 577.08 332.265 577.03 332.291L577.11 331.861C570.221 331.871 563.541 334.227 558.17 338.541C531.03 352.611 517.91 385.301 503.02 410.861C502.61 411.511 502.23 412.161 501.88 412.861C500.97 413.999 499.79 414.892 498.449 415.46C497.107 416.028 495.645 416.253 494.195 416.115C492.744 415.977 491.351 415.48 490.14 414.67C488.93 413.859 487.94 412.76 487.26 411.471C487.21 411.471 487.21 411.421 487.21 411.361C487.01 411.011 486.91 410.741 486.8 410.521C486.72 410.406 486.663 410.277 486.63 410.141L473 370.071C473 370.071 473 370.071 473 369.991L472.6 370.071C472.6 370.071 472.6 370.071 472.6 369.991L470.26 358.691C470.233 354.841 470.911 351.018 472.26 347.411C475.763 338.168 477.2 328.269 476.47 318.411C476.12 313.631 475.03 304.281 469.38 302.841C466.23 302.031 463.19 304.501 461.72 307.111C461.112 308.179 460.648 309.322 460.34 310.511C458.712 309.711 456.983 309.135 455.2 308.801C453.651 308.508 452.077 308.364 450.5 308.371C445.835 308.432 441.227 309.411 436.94 311.251C435.69 311.761 434.31 312.391 432.94 313.121C429.13 315.121 425.27 318.041 424.24 321.981C423.563 324.064 423.563 326.308 424.24 328.391C423.669 329.237 423.247 330.174 422.99 331.161C422.388 333.092 422.332 335.151 422.83 337.111L423.24 338.501H423.29C422.533 339.668 421.931 340.929 421.5 342.251C420.998 343.612 420.81 345.068 420.95 346.511L410.71 347.511C406.47 363.621 419.43 370.681 430.52 367.071C431.77 370.391 433.13 374.461 434.52 379.491L425 381.831C425 381.831 443.73 509.121 488 507.271C490.421 507.219 492.82 506.808 495.12 506.051C499.779 504.498 504.212 502.333 508.3 499.611C504.63 534.611 503.03 567.751 502.35 590.161C501.81 607.161 503.08 613.161 519.82 616.241C522.54 616.731 525.14 617.161 527.53 617.521V617.461C529.03 617.681 530.44 617.871 531.72 618.031C530.44 617.901 529.03 617.741 527.53 617.521L476.19 913.191L473.69 930.061L438.38 939.351C437.173 939.669 436.124 940.416 435.427 941.451C434.73 942.486 434.434 943.739 434.593 944.977C434.752 946.214 435.356 947.352 436.292 948.177C437.228 949.002 438.432 949.459 439.68 949.461H512.87L520.78 913.191H549C549 913.191 555.87 863.191 577.66 794.851C627.87 868.091 698.8 915.311 698.8 915.311L713.56 892.111L729.39 904.771L725.08 938.401C725.031 938.689 725.011 938.98 725.02 939.271C725.021 940.144 725.195 941.008 725.53 941.814C725.866 942.62 726.357 943.351 726.975 943.967C727.594 944.583 728.328 945.071 729.135 945.402C729.942 945.734 730.807 945.904 731.68 945.901C733.139 945.901 734.558 945.421 735.717 944.535C736.877 943.65 737.714 942.408 738.1 941.001L757.87 867.871L739.24 852.501Z" fill="white"/>
<path d="M559 338.59C530.1 360.67 516 433.43 509.21 499.29C504.981 502.14 500.382 504.398 495.54 506C446.49 521.83 425.92 381.79 425.92 381.79L435.25 379.46L473.38 370C473.38 370 473.38 370 473.38 370.07L487 410.11C487.03 410.244 487.081 410.372 487.15 410.49C487.25 410.71 487.37 410.99 487.55 411.33C487.561 411.379 487.585 411.424 487.62 411.46C488.345 412.754 489.374 413.852 490.618 414.659C491.862 415.466 493.285 415.958 494.762 416.092C496.239 416.226 497.726 415.998 499.096 415.428C500.465 414.858 501.674 413.963 502.62 412.82C502.99 412.18 503.36 411.53 503.76 410.89C518.71 385.35 531.83 352.68 559 338.59Z" fill="#2E2E2E"/>
<path d="M747.6 596.221H701.6C701.6 596.221 694.23 538.491 678.73 489.221C678.73 491.551 677.91 640.221 677.73 649.461V649.831C677.728 649.54 677.701 649.248 677.65 648.961C677.603 648.698 677.529 648.44 677.43 648.191C677.43 648.191 677.43 648.191 677.43 648.141C677.333 647.867 677.198 647.608 677.03 647.371C676.883 647.123 676.708 646.891 676.51 646.681C676.421 646.564 676.313 646.462 676.19 646.381C675.987 646.183 675.762 646.009 675.52 645.861C674.806 645.461 673.999 645.254 673.18 645.261H633.18C627.049 645.269 620.992 643.93 615.436 641.338C609.881 638.745 604.963 634.964 601.03 630.261C599.867 628.861 598.798 627.384 597.83 625.841C596.504 623.786 595.376 621.609 594.46 619.341C593.256 616.451 592.39 613.431 591.88 610.341C590.17 600.071 588.4 588.091 586.77 574.941C586.45 572.311 586.12 569.631 585.77 566.941C585.62 565.571 585.47 564.211 585.3 562.841C585 560.061 584.7 557.291 584.41 554.461C584.12 551.631 583.84 548.781 583.56 545.871C583.28 542.961 583.04 540.071 582.79 537.141C582.67 535.651 582.57 534.141 582.45 532.701C582.22 529.751 582 526.751 581.8 523.751C579.8 493.211 579.37 460.911 582.37 431.831C582.64 429.151 582.94 426.501 583.29 423.831C584.13 417.251 585.17 410.881 586.42 404.781C586.91 402.321 587.42 399.941 588.03 397.581C589.17 392.841 590.43 388.331 591.87 383.991C594.453 375.897 597.984 368.136 602.39 360.871C604.022 358.247 605.871 355.765 607.92 353.451C617.1 343.101 629.66 337.401 643.45 341.371L648.14 342.711C730.73 379.621 750.45 502.641 747.6 596.221Z" fill="#2E2E2E"/>
<path d="M758.32 867.838L738.54 940.998C738.12 942.554 737.15 943.904 735.809 944.797C734.469 945.691 732.85 946.068 731.252 945.858C729.655 945.647 728.188 944.865 727.125 943.654C726.061 942.444 725.473 940.889 725.47 939.278C725.446 938.992 725.446 938.704 725.47 938.418L729.79 904.778L714 892.098L739.67 852.488L758.32 867.838Z" fill="#EAAB59"/>
<path d="M678.64 255C678.186 253.036 677.43 251.154 676.4 249.42L675.73 248.36C675.46 247.93 675.19 247.51 674.89 247.07C674.59 246.63 674.34 246.32 674.05 245.93C673.76 245.54 673.43 245.08 673.05 244.66C672.67 244.24 672.38 243.82 672.05 243.39C671.72 242.96 671.3 242.53 670.9 242.08C670.5 241.63 670.11 241.21 669.69 240.77C669.27 240.33 668.85 239.87 668.4 239.43C667.95 238.99 667.51 238.51 667.03 238.06L665.57 236.67C665.08 236.2 664.57 235.73 664.03 235.26L662.42 233.82C661.87 233.35 661.3 232.88 660.73 232.38C660.16 231.88 659.62 231.46 659.05 230.97C658.77 230.77 658.53 230.54 658.23 230.32C657.66 229.85 657.04 229.32 656.42 228.88C647.863 222.268 638.931 216.155 629.67 210.57C632.67 194.82 643.91 112.95 566.07 63.9805C677.89 114.45 679.73 229.09 678.64 255Z" fill="#D7E8F0"/>
<path d="M521.23 913.192L513.31 949.462H440.13C438.769 949.454 437.466 948.91 436.504 947.948C435.542 946.985 434.998 945.683 434.99 944.322C434.99 943.18 435.367 942.071 436.064 941.166C436.76 940.262 437.736 939.613 438.84 939.322L474.16 930.042L476.67 913.172L521.23 913.192Z" fill="#EAAB59"/>
<path d="M566 64.0011C556.068 61.5049 545.896 60.0834 535.66 59.7611C502.42 58.4711 449.83 66.7611 418.94 124.261C418.52 125.001 418.15 125.751 417.75 126.491C404.852 123.628 391.759 121.73 378.58 120.811C378.58 120.811 378.58 120.811 378.51 120.811C374.087 120.548 369.653 120.548 365.23 120.811C406.23 67.9911 458.16 53.1811 500.56 51.8711H500.66C518.705 52.4456 536.615 55.1989 554 60.0711C558.066 61.1712 562.071 62.483 566 64.0011Z" fill="#D7E8F0"/>
<path d="M535.45 611.099V611.199L533.81 618.149C530.36 617.879 525.67 617.149 520.69 616.239C503.94 613.239 502.69 607.129 503.22 590.139C503.92 567.689 505.53 534.469 509.22 499.289C516 433.429 530.07 360.669 559 338.589C563.813 336.075 568.947 334.231 574.26 333.109C575.2 332.909 576.19 332.709 577.16 332.559C563.86 336.999 502 379.499 535.45 611.099Z" fill="#2E2E2E"/>
<path d="M611.1 295.79L614 307.18L607.72 309.49C606.943 309.768 606.087 309.729 605.338 309.381C604.59 309.033 604.008 308.404 603.72 307.63L599.72 296.99C598.357 293.419 597.817 289.587 598.139 285.778C598.461 281.969 599.637 278.282 601.58 274.99C601.591 274.954 601.607 274.92 601.63 274.89C602.38 273.616 602.641 272.112 602.364 270.659C602.087 269.206 601.29 267.904 600.123 266.996C598.956 266.087 597.499 265.634 596.022 265.722C594.546 265.809 593.152 266.431 592.1 267.47C590.1 269.47 588.66 271.12 587.89 273.87C587.219 276.436 586.992 279.098 587.22 281.74C587.46 285.98 588.86 292.12 588.01 296.36C586.77 302.63 578.66 306.11 573.1 307.36C570.944 307.853 568.741 308.111 566.53 308.13C554.4 308.23 553.06 287.83 553.23 278.77C556.31 280.14 559.46 284.77 566.9 284.77C576.52 284.77 580.1 270.46 580.1 270.46L584 254C584.25 252.946 584.257 251.849 584.021 250.792C583.785 249.734 583.313 248.744 582.639 247.896C581.965 247.048 581.107 246.364 580.13 245.895C579.154 245.426 578.083 245.185 577 245.19H561.8C561.207 244.898 560.636 244.564 560.09 244.19C548.46 236.68 557.41 217.82 557.41 217.82C560.46 224.57 577.33 225.27 591.85 228.29C606.37 231.31 624.59 237.4 623.92 261.36C623.25 285.32 611.1 295.79 611.1 295.79Z" fill="#EAAB59"/>
<path d="M678.71 489.199C678.71 491.529 677.89 640.199 677.71 649.439" stroke="black" stroke-width="3.69" stroke-miterlimit="10"/>
<path d="M747.86 596.219V613.079C747.86 622.389 740.31 632.649 731 632.649H712.94C708.94 632.649 704.73 633.509 700.75 632.569C696.06 631.449 693.19 626.719 693.19 622.039V618.039C693.198 614.112 694.76 610.349 697.536 607.572C700.311 604.794 704.074 603.229 708 603.219C708.223 603.219 708.444 603.175 708.651 603.089C708.857 603.004 709.044 602.879 709.202 602.721C709.36 602.563 709.485 602.376 709.571 602.169C709.656 601.963 709.7 601.742 709.7 601.519V596.219" stroke="black" stroke-width="3.69" stroke-miterlimit="10"/>
<path d="M560 244.191C548.36 236.681 557.32 217.821 557.32 217.821C560.32 224.571 577.24 225.271 591.75 228.291C606.26 231.311 624.5 237.401 623.83 261.361C623.78 263.021 623.68 264.611 623.53 266.151C653.87 271.011 674.26 269.451 677.86 260.321C677.86 260.321 678.06 258.431 678.18 255.031C677.725 253.068 676.973 251.187 675.95 249.451C675.72 249.111 675.5 248.761 675.28 248.391C675.06 248.021 674.73 247.541 674.43 247.101C674.13 246.661 673.89 246.351 673.59 245.961C673.29 245.571 672.97 245.111 672.59 244.691C672.21 244.271 671.92 243.851 671.59 243.421L670.45 242.111C670.08 241.691 669.66 241.241 669.23 240.801C668.8 240.361 668.39 239.901 667.94 239.461C667.49 239.021 667.05 238.541 666.58 238.091L665.12 236.701C664.62 236.231 664.12 235.761 663.58 235.291C663.04 234.821 662.51 234.351 661.97 233.851C661.43 233.351 660.85 232.911 660.28 232.411C659.71 231.911 659.16 231.491 658.59 231.001C658.32 230.801 658.07 230.571 657.77 230.351C657.2 229.881 656.58 229.351 655.96 228.911C647.406 222.299 638.478 216.185 629.22 210.601C616.22 202.601 601.01 194.331 584.22 186.091C583.11 185.521 581.97 184.981 580.85 184.431C579.73 183.881 578.57 183.321 577.43 182.791C576.29 182.261 575.14 181.681 573.98 181.161C558.86 174.001 542.61 167.001 525.54 160.241C485.63 144.471 447.84 132.931 417.28 126.481C382.05 119.061 356.43 118.481 348.19 126.011C348.19 126.011 348.19 126.011 348.14 126.011C347.4 127.011 346.68 128.071 345.93 129.111C338.47 147.991 405.55 192.251 496.14 228.341C496.14 228.341 536.55 246.251 558.14 250.251C562.53 251.111 556.71 244.001 560 244.191Z" fill="#2E2E2E"/>
<path d="M702.79 632.881C702.79 632.881 710.54 634.391 711.46 627.301" stroke="black" stroke-width="3.69" stroke-miterlimit="10"/>
<path d="M719 632.519C719 632.519 726.76 634.039 727.68 626.949" stroke="black" stroke-width="3.69" stroke-miterlimit="10"/>
<path d="M533.37 618.14L535.03 611.09" stroke="black" stroke-width="3.69" stroke-miterlimit="10"/>
<path d="M521.23 913.188H549.43C549.43 913.188 556.3 863.188 578.09 794.828" stroke="black" stroke-width="3.69" stroke-miterlimit="10"/>
<path d="M550.6 599.59H550.62" stroke="black" stroke-width="3.69" stroke-miterlimit="10"/>
<path d="M758.29 867.838L738.52 940.998C738.093 942.548 737.119 943.89 735.78 944.778C734.44 945.666 732.825 946.04 731.232 945.83C729.638 945.621 728.174 944.842 727.11 943.638C726.045 942.434 725.452 940.885 725.44 939.278C725.416 938.992 725.416 938.704 725.44 938.418L729.76 904.778L714 892.098L739.7 852.488L758.29 867.838Z" stroke="black" stroke-width="3.69" stroke-miterlimit="10"/>
<path d="M641 658.91L632.44 713.31C630.294 726.961 631.741 740.935 636.639 753.857C641.536 766.778 649.715 778.201 660.37 787L739.68 852.45" stroke="black" stroke-width="3.69" stroke-miterlimit="10"/>
<path d="M714 892.102L699.24 915.302C699.24 915.302 628.3 868.092 578.09 794.832C592.4 749.902 613.19 697.042 642.71 645.262" stroke="black" stroke-width="3.69" stroke-miterlimit="10"/>
<path d="M521.23 913.191L513.31 949.461H440.13C438.885 949.454 437.684 948.996 436.75 948.172C435.817 947.347 435.214 946.213 435.053 944.978C434.891 943.743 435.183 942.491 435.874 941.455C436.565 940.419 437.608 939.668 438.81 939.341L474.14 930.061L476.65 913.191H521.23Z" stroke="black" stroke-width="3.69" stroke-miterlimit="10"/>
<path d="M508.75 499.289C504.528 502.139 499.935 504.397 495.1 505.999C446.1 521.829 425.49 381.789 425.49 381.789L473 369.999C473 369.999 473 369.999 473 370.069L486.6 410.139L486.87 410.809L487.14 411.399C487.171 411.44 487.198 411.483 487.22 411.529C487.943 412.825 488.971 413.925 490.216 414.734C491.46 415.542 492.883 416.035 494.361 416.169C495.839 416.303 497.327 416.074 498.697 415.503C500.066 414.931 501.276 414.034 502.22 412.889C502.59 412.249 502.97 411.599 503.36 410.959C518.27 385.379 531.36 352.709 558.54 338.619C558.54 338.619 558.54 338.619 558.59 338.619C563.4 336.105 568.53 334.262 573.84 333.139C574.78 332.939 575.78 332.739 576.74 332.599C576.74 332.599 576.74 332.599 576.82 332.599L577.61 332.449" stroke="black" stroke-width="3.69" stroke-miterlimit="10"/>
<path d="M620.83 334.121C623.51 334.671 626.16 335.291 628.83 335.961C635.452 337.648 641.919 339.896 648.16 342.681C730.72 379.591 750.44 502.611 747.59 596.191H701.59C701.59 596.191 682.59 447.471 641.48 423.721" stroke="black" stroke-width="3.69" stroke-miterlimit="10"/>
<path d="M535 611.099C501.55 379.489 563.42 336.999 576.74 332.539C576.74 332.539 576.74 332.539 576.82 332.539L577.59 332.289" stroke="black" stroke-width="3.69" stroke-miterlimit="10"/>
<path d="M577.51 331.891C570.63 331.906 563.959 334.258 558.59 338.561C558.59 338.561 558.59 338.561 558.54 338.561C529.63 360.641 515.54 433.401 508.75 499.261C505.07 534.441 503.47 567.651 502.75 590.111C502.21 607.111 503.48 613.111 520.21 616.201C525.21 617.111 529.89 617.841 533.35 618.111L476.65 913.191" stroke="black" stroke-width="3.69" stroke-miterlimit="10"/>
<path d="M677.66 648.999C677.703 649.247 677.726 649.497 677.73 649.749C677.786 650.633 677.566 651.513 677.1 652.268C676.634 653.022 675.946 653.613 675.13 653.959C667.44 657.529 656.13 660.509 641 658.959L643.13 645.309H673.13C673.949 645.301 674.756 645.508 675.47 645.909C675.712 646.056 675.937 646.231 676.14 646.429C676.263 646.51 676.371 646.611 676.46 646.729C676.658 646.939 676.833 647.17 676.98 647.419C677.148 647.656 677.283 647.915 677.38 648.189C677.38 648.189 677.38 648.189 677.38 648.239C677.499 648.482 677.593 648.737 677.66 648.999Z" fill="black" stroke="black" stroke-width="3.69" stroke-miterlimit="10"/>
<path d="M677.74 649.508C677.736 649.339 677.709 649.171 677.66 649.008C677.613 648.745 677.539 648.487 677.44 648.238" stroke="black" stroke-width="3.69" stroke-miterlimit="10"/>
<path d="M677.42 648.14C677.319 647.868 677.185 647.609 677.02 647.37C676.89 647.11 676.714 646.876 676.5 646.68" stroke="black" stroke-width="3.69" stroke-miterlimit="10"/>
<path d="M676.18 646.379C675.977 646.181 675.752 646.007 675.51 645.859" stroke="black" stroke-width="3.69" stroke-miterlimit="10"/>
<path d="M643.13 645.26H633.13C626.999 645.268 620.942 643.928 615.387 641.336C609.831 638.744 604.913 634.963 600.98 630.26C599.817 628.859 598.748 627.383 597.78 625.84C594.774 621.117 592.757 615.834 591.85 610.31C590.14 600.04 588.36 588.06 586.72 574.91C586.4 572.28 586.07 569.6 585.72 566.91C585.57 565.54 585.42 564.18 585.25 562.81C584.95 560.03 584.65 557.26 584.36 554.43C584.07 551.6 583.79 548.75 583.51 545.84C583.23 542.93 582.99 540.04 582.74 537.11C582.62 535.62 582.52 534.11 582.4 532.67C582.17 529.72 581.95 526.72 581.75 523.72C579.75 493.18 579.32 460.88 582.32 431.8C582.59 429.12 582.89 426.47 583.24 423.8C584.08 417.22 585.12 410.85 586.37 404.75C586.86 402.29 587.37 399.91 587.98 397.55C589.12 392.81 590.38 388.3 591.82 383.96C594.409 375.863 597.95 368.102 602.37 360.84C603.991 358.216 605.831 355.734 607.87 353.42C617.05 343.07 629.61 337.37 643.4 341.34L648.09 342.68H648.19" stroke="black" stroke-width="3.69" stroke-miterlimit="10"/>
<path d="M486.56 410.109C486.56 410.109 490.41 419.859 497.86 426.059" stroke="black" stroke-width="3.69" stroke-miterlimit="10"/>
<path d="M460.7 310.522C461.012 309.329 461.472 308.18 462.07 307.102C463.54 304.492 466.58 302.042 469.74 302.842C475.38 304.272 476.46 313.642 476.84 318.402C477.561 328.259 476.124 338.156 472.63 347.402C470.187 353.62 469.944 360.486 471.94 366.862L472.94 369.982" stroke="black" stroke-width="3.69" stroke-miterlimit="10"/>
<path d="M437.24 344.36C439.06 341.3 445.24 341.31 448.33 343.98C448.999 344.572 449.797 345 450.66 345.23C451.89 345.608 453.216 345.509 454.376 344.953C455.536 344.397 456.444 343.425 456.92 342.23C458.39 338.57 455.27 333.49 452.27 331.52C447.86 328.61 442.15 328.66 437.16 329.78C432.17 330.9 427.38 333.32 424.24 337.53C423.163 338.949 422.337 340.542 421.8 342.24C420.68 345.84 421.2 347.51 422.7 350.94L423.31 352.08C424.12 353.58 425 355.08 425.9 356.5C427.57 359.2 431.09 365.94 434.82 379.5" stroke="black" stroke-width="3.69" stroke-miterlimit="10"/>
<path d="M424.55 328.419C423.884 326.331 423.884 324.087 424.55 321.999C425.55 318.059 429.44 315.169 433.26 313.149C434.66 312.409 436.05 311.779 437.26 311.269C441.545 309.419 446.153 308.437 450.82 308.379C452.394 308.379 453.964 308.526 455.51 308.819C457.296 309.15 459.028 309.722 460.66 310.519C464.731 312.59 467.911 316.069 469.61 320.309C471.34 324.199 472.32 328.929 469.22 331.759" stroke="black" stroke-width="3.69" stroke-miterlimit="10"/>
<path d="M457.18 338.998L458.59 341.258C459.433 342.094 460.502 342.666 461.665 342.904C462.829 343.141 464.036 343.035 465.14 342.598C470.54 340.688 470.64 336.058 469.26 331.768C469.018 330.989 468.731 330.224 468.4 329.478C466.948 325.981 464.517 322.978 461.4 320.828C459.251 319.41 456.835 318.447 454.3 317.998C452.237 317.611 450.135 317.476 448.04 317.598C443.906 317.854 439.847 318.818 436.04 320.448C432.22 322.028 427.04 324.608 424.54 328.448C423.973 329.289 423.551 330.218 423.29 331.198C422.685 333.145 422.63 335.222 423.13 337.198L423.55 338.588" stroke="black" stroke-width="3.69" stroke-miterlimit="10"/>
<path d="M440.35 318.93V318.91" stroke="black" stroke-width="2.46" stroke-miterlimit="10"/>
<path d="M591.05 605.141C591.05 605.141 563.05 620.941 535.05 611.191" stroke="black" stroke-width="3.69" stroke-miterlimit="10"/>
<path d="M448.33 344C445.33 350.21 443.4 357.5 438.4 362.48C427.2 373.64 405.73 367.61 411.03 347.48" stroke="black" stroke-width="3.69" stroke-miterlimit="10"/>
<path d="M460.7 310.52L525.54 160.25" stroke="black" stroke-width="3.69" stroke-miterlimit="10"/>
<path d="M623.56 266.15C653.9 271.01 674.29 269.45 677.89 260.32C685.4 241.32 617.21 196.46 525.54 160.24C433.87 124.02 353.47 110.11 345.93 129.16C338.39 148.21 406.61 193 498.28 229.23C519.04 237.45 539.28 244.49 558.14 250.3" stroke="black" stroke-width="3.69" stroke-miterlimit="10"/>
<path d="M677.89 260.331C677.89 260.331 692.16 121.061 565.64 64.0007C565.64 64.0007 432.64 6.25072 349.03 125.261" stroke="black" stroke-width="3.69" stroke-miterlimit="10"/>
<path d="M629 208.718C629 208.718 652.05 118.378 565.64 63.9983C565.64 63.9983 464.49 34.9983 417.28 126.488" stroke="black" stroke-width="3.69" stroke-miterlimit="10"/>
<path d="M569.68 264.091C569.513 262.314 568.728 260.652 567.462 259.395C566.195 258.138 564.528 257.365 562.75 257.211" stroke="black" stroke-width="3.69" stroke-miterlimit="10"/>
<path d="M563.58 268.851C564.701 268.851 565.61 267.365 565.61 265.531C565.61 263.697 564.701 262.211 563.58 262.211C562.459 262.211 561.55 263.697 561.55 265.531C561.55 267.365 562.459 268.851 563.58 268.851Z" fill="black"/>
<path d="M553.1 278.8C556.18 280.17 559.33 284.8 566.77 284.8C576.4 284.8 579.97 270.49 579.97 270.49L583.97 253.97C584.222 252.916 584.23 251.818 583.995 250.76C583.76 249.702 583.288 248.711 582.613 247.862C581.939 247.013 581.081 246.329 580.103 245.861C579.125 245.393 578.054 245.153 576.97 245.16H561.74C561.145 244.866 560.57 244.532 560.02 244.16" stroke="black" stroke-width="3.69" stroke-miterlimit="10"/>
<path d="M553.44 288.109C553.44 288.109 554.44 290.999 561.56 292.239" stroke="black" stroke-width="3.69" stroke-miterlimit="10"/>
<path d="M573 307.39C570.841 307.882 568.635 308.14 566.42 308.16C553.75 308.26 552.87 286.16 553.15 277.61C553.15 277.39 553.15 277.16 553.15 276.94H550.27C549.933 276.931 549.605 276.837 549.314 276.666C549.023 276.496 548.781 276.255 548.608 275.966C548.436 275.676 548.339 275.348 548.327 275.012C548.315 274.675 548.388 274.341 548.54 274.04L555.21 261.53C556.292 259.505 557.07 257.332 557.52 255.08C558.125 251.402 558.96 247.764 560.02 244.19C548.39 236.68 557.34 217.82 557.34 217.82C560.4 224.57 577.27 225.27 591.78 228.29C606.29 231.31 624.52 237.4 623.86 261.36C623.2 285.32 611 295.79 611 295.79L613.9 307.18L607.63 309.49C606.853 309.766 605.998 309.725 605.25 309.377C604.502 309.03 603.92 308.402 603.63 307.63L599.63 296.98C598.267 293.41 597.726 289.578 598.046 285.769C598.367 281.961 599.54 278.273 601.48 274.98L601.54 274.87C602.304 273.597 602.575 272.088 602.303 270.629C602.032 269.169 601.235 267.86 600.064 266.947C598.893 266.034 597.428 265.582 595.947 265.674C594.465 265.767 593.068 266.399 592.02 267.45C590.02 269.45 588.57 271.1 587.8 273.85C587.134 276.417 586.907 279.078 587.13 281.72C587.38 285.96 588.77 292.1 587.93 296.34C586.69 302.61 578.57 306.09 573.02 307.34L577.65 332.34C577.65 332.34 569.89 347.34 578.99 354.27C588.09 361.2 620.87 334.1 620.87 334.1L613.97 307.16" stroke="black" stroke-width="3.69" stroke-miterlimit="10"/>
<path d="M553.15 276.941H557.5" stroke="black" stroke-width="3.69" stroke-miterlimit="10"/>
<path d="M440.13 949.461H207.93" stroke="black" stroke-width="3.69" stroke-miterlimit="10"/>
<path d="M831.55 949.461H513.31" stroke="black" stroke-width="3.69" stroke-miterlimit="10"/>
</g>
</g>
<defs>
<clipPath id="clip0_2524_657">
<rect width="1000" height="1000" fill="white"/>
</clipPath>
</defs>
</svg>
