<svg width="513" height="621" viewBox="0 0 513 621" fill="none" xmlns="http://www.w3.org/2000/svg">
<path fill-rule="evenodd" clip-rule="evenodd" d="M139.228 565.377C199.796 544.618 258.997 602.651 363.088 619.5C467.179 636.348 541.989 501.385 500.595 431.602C459.201 361.819 467.179 270.781 494.496 184.251C521.813 97.721 486.885 46.213 449.767 25.1257C412.649 4.0389 376.224 -2.5699 318.128 1.3968C260.032 5.3635 199.498 22.6166 142.867 51.2C86.236 79.783 22.571 143.125 16.012 183.742C9.45201 224.359 35.66 228.331 40.349 292.575C45.038 356.82 -19.537 442.719 6.72101 500.985C32.979 559.251 78.659 586.135 139.228 565.377Z" fill="#FFB61D"/>
</svg>
